<?xml version="1.0" encoding="UTF-8" standalone="no"?>
<!DOCTYPE svg PUBLIC "-//W3C//DTD SVG 1.1//EN"
 "http://www.w3.org/Graphics/SVG/1.1/DTD/svg11.dtd">
<!-- Generated by graphviz version 7.1.0 (20230121.1956)
 -->
<!-- Pages: 1 -->
<svg width="455pt" height="210pt"
 viewBox="0.00 0.00 455.00 210.00" xmlns="http://www.w3.org/2000/svg" xmlns:xlink="http://www.w3.org/1999/xlink">
<g id="graph0" class="graph" transform="scale(1 1) rotate(0) translate(4 206)">
<polygon fill="white" stroke="none" points="-4,4 -4,-206 451,-206 451,4 -4,4"/>
<!-- 4358800912 -->
<g id="node1" class="node">
<title>4358800912</title>
<polygon fill="none" stroke="black" points="382,-88.5 382,-157.5 447,-157.5 447,-88.5 382,-88.5"/>
<text text-anchor="middle" x="414.5" y="-142.3" font-family="Times,serif" font-size="14.00">label:</text>
<polyline fill="none" stroke="black" points="382,-134.5 447,-134.5"/>
<text text-anchor="middle" x="414.5" y="-119.3" font-family="Times,serif" font-size="14.00">data: 7</text>
<polyline fill="none" stroke="black" points="382,-111.5 447,-111.5"/>
<text text-anchor="middle" x="414.5" y="-96.3" font-family="Times,serif" font-size="14.00">grad: 0.0</text>
</g>
<!-- op_4358800912 -->
<g id="node2" class="node">
<title>op_4358800912</title>
<ellipse fill="none" stroke="black" cx="319" cy="-123" rx="27" ry="18"/>
<text text-anchor="middle" x="319" y="-119.3" font-family="Times,serif" font-size="14.00">+</text>
</g>
<!-- op_4358800912&#45;&gt;4358800912 -->
<g id="edge1" class="edge">
<title>op_4358800912&#45;&gt;4358800912</title>
<path fill="none" stroke="black" d="M346.04,-123C353.77,-123 362.44,-123 370.93,-123"/>
<polygon fill="black" stroke="black" points="370.77,-126.5 380.77,-123 370.77,-119.5 370.77,-126.5"/>
</g>
<!-- 4358800432 -->
<g id="node3" class="node">
<title>4358800432</title>
<polygon fill="none" stroke="black" points="0,-88.5 0,-157.5 65,-157.5 65,-88.5 0,-88.5"/>
<text text-anchor="middle" x="32.5" y="-142.3" font-family="Times,serif" font-size="14.00">label: b</text>
<polyline fill="none" stroke="black" points="0,-134.5 65,-134.5"/>
<text text-anchor="middle" x="32.5" y="-119.3" font-family="Times,serif" font-size="14.00">data: 2</text>
<polyline fill="none" stroke="black" points="0,-111.5 65,-111.5"/>
<text text-anchor="middle" x="32.5" y="-96.3" font-family="Times,serif" font-size="14.00">grad: 0.0</text>
</g>
<!-- op_4358800864 -->
<g id="node7" class="node">
<title>op_4358800864</title>
<ellipse fill="none" stroke="black" cx="128" cy="-79" rx="27" ry="18"/>
<text text-anchor="middle" x="128" y="-75.3" font-family="Times,serif" font-size="14.00">*</text>
</g>
<!-- 4358800432&#45;&gt;op_4358800864 -->
<g id="edge4" class="edge">
<title>4358800432&#45;&gt;op_4358800864</title>
<path fill="none" stroke="black" d="M64.89,-108.23C74.63,-103.64 85.37,-98.59 95.15,-93.99"/>
<polygon fill="black" stroke="black" points="96.35,-97.29 103.91,-89.87 93.37,-90.96 96.35,-97.29"/>
</g>
<!-- 4358799520 -->
<g id="node4" class="node">
<title>4358799520</title>
<polygon fill="none" stroke="black" points="0,-0.5 0,-69.5 65,-69.5 65,-0.5 0,-0.5"/>
<text text-anchor="middle" x="32.5" y="-54.3" font-family="Times,serif" font-size="14.00">label: c</text>
<polyline fill="none" stroke="black" points="0,-46.5 65,-46.5"/>
<text text-anchor="middle" x="32.5" y="-31.3" font-family="Times,serif" font-size="14.00">data: 3</text>
<polyline fill="none" stroke="black" points="0,-23.5 65,-23.5"/>
<text text-anchor="middle" x="32.5" y="-8.3" font-family="Times,serif" font-size="14.00">grad: 0.0</text>
</g>
<!-- 4358799520&#45;&gt;op_4358800864 -->
<g id="edge3" class="edge">
<title>4358799520&#45;&gt;op_4358800864</title>
<path fill="none" stroke="black" d="M64.89,-49.77C74.63,-54.36 85.37,-59.41 95.15,-64.01"/>
<polygon fill="black" stroke="black" points="93.37,-67.04 103.91,-68.13 96.35,-60.71 93.37,-67.04"/>
</g>
<!-- 4358800096 -->
<g id="node5" class="node">
<title>4358800096</title>
<polygon fill="none" stroke="black" points="191,-132.5 191,-201.5 256,-201.5 256,-132.5 191,-132.5"/>
<text text-anchor="middle" x="223.5" y="-186.3" font-family="Times,serif" font-size="14.00">label: a</text>
<polyline fill="none" stroke="black" points="191,-178.5 256,-178.5"/>
<text text-anchor="middle" x="223.5" y="-163.3" font-family="Times,serif" font-size="14.00">data: 1</text>
<polyline fill="none" stroke="black" points="191,-155.5 256,-155.5"/>
<text text-anchor="middle" x="223.5" y="-140.3" font-family="Times,serif" font-size="14.00">grad: 0.0</text>
</g>
<!-- 4358800096&#45;&gt;op_4358800912 -->
<g id="edge6" class="edge">
<title>4358800096&#45;&gt;op_4358800912</title>
<path fill="none" stroke="black" d="M255.89,-152.23C265.63,-147.64 276.37,-142.59 286.15,-137.99"/>
<polygon fill="black" stroke="black" points="287.35,-141.29 294.91,-133.87 284.37,-134.96 287.35,-141.29"/>
</g>
<!-- 4358800864 -->
<g id="node6" class="node">
<title>4358800864</title>
<polygon fill="none" stroke="black" points="191,-44.5 191,-113.5 256,-113.5 256,-44.5 191,-44.5"/>
<text text-anchor="middle" x="223.5" y="-98.3" font-family="Times,serif" font-size="14.00">label:</text>
<polyline fill="none" stroke="black" points="191,-90.5 256,-90.5"/>
<text text-anchor="middle" x="223.5" y="-75.3" font-family="Times,serif" font-size="14.00">data: 6</text>
<polyline fill="none" stroke="black" points="191,-67.5 256,-67.5"/>
<text text-anchor="middle" x="223.5" y="-52.3" font-family="Times,serif" font-size="14.00">grad: 0.0</text>
</g>
<!-- 4358800864&#45;&gt;op_4358800912 -->
<g id="edge5" class="edge">
<title>4358800864&#45;&gt;op_4358800912</title>
<path fill="none" stroke="black" d="M255.89,-93.77C265.63,-98.36 276.37,-103.41 286.15,-108.01"/>
<polygon fill="black" stroke="black" points="284.37,-111.04 294.91,-112.13 287.35,-104.71 284.37,-111.04"/>
</g>
<!-- op_4358800864&#45;&gt;4358800864 -->
<g id="edge2" class="edge">
<title>op_4358800864&#45;&gt;4358800864</title>
<path fill="none" stroke="black" d="M155.04,-79C162.77,-79 171.44,-79 179.93,-79"/>
<polygon fill="black" stroke="black" points="179.77,-82.5 189.77,-79 179.77,-75.5 179.77,-82.5"/>
</g>
</g>
</svg>
