<?xml version="1.0" encoding="UTF-8" standalone="no"?>
<!DOCTYPE svg PUBLIC "-//W3C//DTD SVG 1.1//EN"
 "http://www.w3.org/Graphics/SVG/1.1/DTD/svg11.dtd">
<!-- Generated by graphviz version 7.1.0 (20230121.1956)
 -->
<!-- Pages: 1 -->
<svg width="485pt" height="544pt"
 viewBox="0.00 0.00 485.00 544.38" xmlns="http://www.w3.org/2000/svg" xmlns:xlink="http://www.w3.org/1999/xlink">
<g id="graph0" class="graph" transform="scale(1 1) rotate(0) translate(4 540.38)">
<polygon fill="white" stroke="none" points="-4,4 -4,-540.38 481,-540.38 481,4 -4,4"/>
<!-- 4802435376 -->
<g id="node1" class="node">
<title>4802435376</title>
<polygon fill="none" stroke="black" points="0,-308.38 0,-344.38 54,-344.38 54,-308.38 0,-308.38"/>
<text text-anchor="middle" x="27" y="-322.68" font-family="Times,serif" font-size="14.00">bias</text>
</g>
<!-- 5004314512 -->
<g id="node2" class="node">
<title>5004314512</title>
<polygon fill="none" stroke="black" points="127,-113.38 127,-159.38 195,-159.38 195,-113.38 127,-113.38"/>
<text text-anchor="middle" x="161" y="-144.18" font-family="Times,serif" font-size="14.00">layer: 1</text>
<polyline fill="none" stroke="black" points="127,-136.38 195,-136.38"/>
<text text-anchor="middle" x="161" y="-121.18" font-family="Times,serif" font-size="14.00">neuron: 0</text>
</g>
<!-- 4802435376&#45;&gt;5004314512 -->
<g id="edge1" class="edge">
<title>4802435376&#45;&gt;5004314512</title>
<path fill="none" stroke="#fee08b" d="M35.77,-308.48C41.42,-294.92 48.94,-275.74 54,-258.38 65.17,-220.06 46.22,-200.87 72,-170.38 83.17,-157.17 100.1,-149.08 116.14,-144.12"/>
<polygon fill="#fee08b" stroke="#fee08b" points="116.83,-147.56 125.56,-141.57 114.99,-140.81 116.83,-147.56"/>
<g id="a_edge1&#45;label"><a xlink:title="Value(data=9.76e&#45;02, grad=0.00e+00, label=b)">
<text text-anchor="middle" x="90.5" y="-174.18" font-family="Times,serif" font-size="14.00">b_0</text>
</a>
</g>
</g>
<!-- 5004315856 -->
<g id="node5" class="node">
<title>5004315856</title>
<polygon fill="none" stroke="black" points="127,-233.38 127,-279.38 195,-279.38 195,-233.38 127,-233.38"/>
<text text-anchor="middle" x="161" y="-264.18" font-family="Times,serif" font-size="14.00">layer: 1</text>
<polyline fill="none" stroke="black" points="127,-256.38 195,-256.38"/>
<text text-anchor="middle" x="161" y="-241.18" font-family="Times,serif" font-size="14.00">neuron: 1</text>
</g>
<!-- 4802435376&#45;&gt;5004315856 -->
<g id="edge4" class="edge">
<title>4802435376&#45;&gt;5004315856</title>
<path fill="none" stroke="#a6d96a" d="M35.17,-308.46C45.76,-282.44 65.08,-236.78 72,-232.38 85.33,-223.9 101.64,-225.68 116.58,-231.01"/>
<polygon fill="#a6d96a" stroke="#a6d96a" points="115.18,-234.21 125.76,-234.83 117.87,-227.75 115.18,-234.21"/>
<g id="a_edge4&#45;label"><a xlink:title="Value(data=6.96e&#45;01, grad=0.00e+00, label=b)">
<text text-anchor="middle" x="90.5" y="-236.18" font-family="Times,serif" font-size="14.00">b_1</text>
</a>
</g>
</g>
<!-- 5004315280 -->
<g id="node6" class="node">
<title>5004315280</title>
<polygon fill="none" stroke="black" points="127,-456.38 127,-502.38 195,-502.38 195,-456.38 127,-456.38"/>
<text text-anchor="middle" x="161" y="-487.18" font-family="Times,serif" font-size="14.00">layer: 1</text>
<polyline fill="none" stroke="black" points="127,-479.38 195,-479.38"/>
<text text-anchor="middle" x="161" y="-464.18" font-family="Times,serif" font-size="14.00">neuron: 2</text>
</g>
<!-- 4802435376&#45;&gt;5004315280 -->
<g id="edge7" class="edge">
<title>4802435376&#45;&gt;5004315280</title>
<path fill="none" stroke="#fdae61" d="M38.84,-344.16C43.92,-353.02 49.78,-364.03 54,-374.38 65,-401.35 53.2,-415.15 72,-437.38 73.74,-439.44 95.47,-449.82 116.9,-459.74"/>
<polygon fill="#fdae61" stroke="#fdae61" points="115.39,-462.9 125.93,-463.91 118.32,-456.54 115.39,-462.9"/>
<g id="a_edge7&#45;label"><a xlink:title="Value(data=&#45;1.19e&#45;01, grad=0.00e+00, label=b)">
<text text-anchor="middle" x="90.5" y="-458.18" font-family="Times,serif" font-size="14.00">b_2</text>
</a>
</g>
</g>
<!-- 5004315760 -->
<g id="node7" class="node">
<title>5004315760</title>
<polygon fill="none" stroke="black" points="127,-310.38 127,-356.38 195,-356.38 195,-310.38 127,-310.38"/>
<text text-anchor="middle" x="161" y="-341.18" font-family="Times,serif" font-size="14.00">layer: 1</text>
<polyline fill="none" stroke="black" points="127,-333.38 195,-333.38"/>
<text text-anchor="middle" x="161" y="-318.18" font-family="Times,serif" font-size="14.00">neuron: 3</text>
</g>
<!-- 4802435376&#45;&gt;5004315760 -->
<g id="edge10" class="edge">
<title>4802435376&#45;&gt;5004315760</title>
<path fill="none" stroke="#66bd63" d="M53.76,-327.75C71.41,-328.69 95.25,-329.95 115.88,-331.04"/>
<polygon fill="#66bd63" stroke="#66bd63" points="115.59,-334.53 125.76,-331.57 115.96,-327.54 115.59,-334.53"/>
<g id="a_edge10&#45;label"><a xlink:title="Value(data=9.24e&#45;01, grad=0.00e+00, label=b)">
<text text-anchor="middle" x="90.5" y="-334.18" font-family="Times,serif" font-size="14.00">b_3</text>
</a>
</g>
</g>
<!-- 5004314704 -->
<g id="node9" class="node">
<title>5004314704</title>
<polygon fill="none" stroke="black" points="268,-192.38 268,-238.38 336,-238.38 336,-192.38 268,-192.38"/>
<text text-anchor="middle" x="302" y="-223.18" font-family="Times,serif" font-size="14.00">layer: 2</text>
<polyline fill="none" stroke="black" points="268,-215.38 336,-215.38"/>
<text text-anchor="middle" x="302" y="-200.18" font-family="Times,serif" font-size="14.00">neuron: 0</text>
</g>
<!-- 5004314512&#45;&gt;5004314704 -->
<g id="edge14" class="edge">
<title>5004314512&#45;&gt;5004314704</title>
<path fill="none" stroke="#d73027" d="M194.73,-148.62C211.72,-155.53 232.53,-164.88 250,-175.38 255.18,-178.5 260.44,-182.07 265.51,-185.77"/>
<polygon fill="#d73027" stroke="#d73027" points="263.08,-188.32 273.17,-191.57 267.31,-182.74 263.08,-188.32"/>
<g id="a_edge14&#45;label"><a xlink:title="Value(data=&#45;4.94e&#45;01, grad=0.00e+00, label=w0)">
<text text-anchor="middle" x="231.5" y="-179.18" font-family="Times,serif" font-size="14.00">w_0_0</text>
</a>
</g>
</g>
<!-- 5004260592 -->
<g id="node10" class="node">
<title>5004260592</title>
<polygon fill="none" stroke="black" points="268,-97.38 268,-143.38 336,-143.38 336,-97.38 268,-97.38"/>
<text text-anchor="middle" x="302" y="-128.18" font-family="Times,serif" font-size="14.00">layer: 2</text>
<polyline fill="none" stroke="black" points="268,-120.38 336,-120.38"/>
<text text-anchor="middle" x="302" y="-105.18" font-family="Times,serif" font-size="14.00">neuron: 1</text>
</g>
<!-- 5004314512&#45;&gt;5004260592 -->
<g id="edge19" class="edge">
<title>5004314512&#45;&gt;5004260592</title>
<path fill="none" stroke="#d9ef8b" d="M163.56,-113.45C166.99,-83.25 177.95,-31.22 213,-7.38 226.6,1.86 237.16,2.89 250,-7.38 278.46,-30.15 250.42,-55.46 268,-87.38 268.18,-87.72 268.37,-88.05 268.56,-88.38"/>
<polygon fill="#d9ef8b" stroke="#d9ef8b" points="265.56,-90.2 274.2,-96.33 271.27,-86.15 265.56,-90.2"/>
<g id="a_edge19&#45;label"><a xlink:title="Value(data=4.56e&#45;01, grad=0.00e+00, label=w0)">
<text text-anchor="middle" x="231.5" y="-11.18" font-family="Times,serif" font-size="14.00">w_0_1</text>
</a>
</g>
</g>
<!-- 5004531312 -->
<g id="node11" class="node">
<title>5004531312</title>
<polygon fill="none" stroke="black" points="268,-382.38 268,-428.38 336,-428.38 336,-382.38 268,-382.38"/>
<text text-anchor="middle" x="302" y="-413.18" font-family="Times,serif" font-size="14.00">layer: 2</text>
<polyline fill="none" stroke="black" points="268,-405.38 336,-405.38"/>
<text text-anchor="middle" x="302" y="-390.18" font-family="Times,serif" font-size="14.00">neuron: 2</text>
</g>
<!-- 5004314512&#45;&gt;5004531312 -->
<g id="edge24" class="edge">
<title>5004314512&#45;&gt;5004531312</title>
<path fill="none" stroke="#fdae61" d="M188.92,-159.01C191.28,-161.95 193.38,-165.09 195,-168.38 226.19,-231.8 172.81,-268.25 213,-326.38 223.51,-341.59 235.51,-333.9 250,-345.38 260.25,-353.51 269.97,-363.95 278.11,-373.83"/>
<polygon fill="#fdae61" stroke="#fdae61" points="275.23,-375.82 284.18,-381.48 280.71,-371.47 275.23,-375.82"/>
<g id="a_edge24&#45;label"><a xlink:title="Value(data=&#45;2.97e&#45;02, grad=0.00e+00, label=w0)">
<text text-anchor="middle" x="231.5" y="-349.18" font-family="Times,serif" font-size="14.00">w_0_2</text>
</a>
</g>
</g>
<!-- x_0 -->
<g id="node3" class="node">
<title>x_0</title>
<ellipse fill="none" stroke="black" cx="27" cy="-231.38" rx="27" ry="18"/>
<text text-anchor="middle" x="27" y="-227.68" font-family="Times,serif" font-size="14.00">x_0</text>
</g>
<!-- x_0&#45;&gt;5004314512 -->
<g id="edge2" class="edge">
<title>x_0&#45;&gt;5004314512</title>
<path fill="none" stroke="#a50026" d="M29.06,-213.07C31.67,-186.95 40.72,-139.77 72,-118.38 84.95,-109.53 101.31,-110.41 116.4,-114.75"/>
<polygon fill="#a50026" stroke="#a50026" points="115.07,-117.99 125.66,-117.93 117.34,-111.37 115.07,-117.99"/>
<g id="a_edge2&#45;label"><a xlink:title="Value(data=&#45;9.80e&#45;01, grad=0.00e+00, label=w0)">
<text text-anchor="middle" x="90.5" y="-122.18" font-family="Times,serif" font-size="14.00">w_0_0</text>
</a>
</g>
</g>
<!-- x_0&#45;&gt;5004315856 -->
<g id="edge5" class="edge">
<title>x_0&#45;&gt;5004315856</title>
<path fill="none" stroke="#d73027" d="M41.38,-215.78C49.34,-207.72 60.18,-198.69 72,-194.38 87.45,-188.75 94.63,-186.39 109,-194.38 122.26,-201.76 117.57,-211.5 127,-223.38 127.42,-223.92 127.86,-224.46 128.3,-224.99"/>
<polygon fill="#d73027" stroke="#d73027" points="125.62,-227.25 134.86,-232.44 130.87,-222.62 125.62,-227.25"/>
<g id="a_edge5&#45;label"><a xlink:title="Value(data=&#45;5.16e&#45;01, grad=0.00e+00, label=w0)">
<text text-anchor="middle" x="90.5" y="-198.18" font-family="Times,serif" font-size="14.00">w_0_1</text>
</a>
</g>
</g>
<!-- x_0&#45;&gt;5004315280 -->
<g id="edge8" class="edge">
<title>x_0&#45;&gt;5004315280</title>
<path fill="none" stroke="#fdae61" d="M35.64,-248.7C41.38,-262.26 49.07,-281.73 54,-299.38 66.04,-342.45 45.74,-362.18 72,-398.38 82.98,-413.52 94.52,-406.56 109,-418.38 119.23,-426.74 128.94,-437.38 137.09,-447.42"/>
<polygon fill="#fdae61" stroke="#fdae61" points="134.25,-449.47 143.17,-455.2 139.77,-445.16 134.25,-449.47"/>
<g id="a_edge8&#45;label"><a xlink:title="Value(data=&#45;1.55e&#45;01, grad=0.00e+00, label=w0)">
<text text-anchor="middle" x="90.5" y="-422.18" font-family="Times,serif" font-size="14.00">w_0_2</text>
</a>
</g>
</g>
<!-- x_0&#45;&gt;5004315760 -->
<g id="edge11" class="edge">
<title>x_0&#45;&gt;5004315760</title>
<path fill="none" stroke="#fee08b" d="M38.89,-247.93C47.04,-259.43 58.98,-274.57 72,-285.38 79.79,-291.86 98.7,-302.37 117,-311.91"/>
<polygon fill="#fee08b" stroke="#fee08b" points="115.2,-314.92 125.69,-316.39 118.4,-308.7 115.2,-314.92"/>
<g id="a_edge11&#45;label"><a xlink:title="Value(data=2.56e&#45;02, grad=0.00e+00, label=w0)">
<text text-anchor="middle" x="90.5" y="-310.18" font-family="Times,serif" font-size="14.00">w_0_3</text>
</a>
</g>
</g>
<!-- x_1 -->
<g id="node4" class="node">
<title>x_1</title>
<ellipse fill="none" stroke="black" cx="27" cy="-401.38" rx="27" ry="18"/>
<text text-anchor="middle" x="27" y="-397.68" font-family="Times,serif" font-size="14.00">x_1</text>
</g>
<!-- x_1&#45;&gt;5004314512 -->
<g id="edge3" class="edge">
<title>x_1&#45;&gt;5004314512</title>
<path fill="none" stroke="#fee08b" d="M38.68,-385.01C43.97,-376.23 50.06,-365.06 54,-354.38 67.82,-316.93 47.87,-298.19 72,-266.38 83.17,-251.66 97.66,-261.99 109,-247.38 129.19,-221.38 112.76,-203.13 128.19,-169.2"/>
<polygon fill="#fee08b" stroke="#fee08b" points="131.19,-171.02 132.74,-160.54 124.99,-167.76 131.19,-171.02"/>
<g id="a_edge3&#45;label"><a xlink:title="Value(data=2.72e&#45;01, grad=0.00e+00, label=w1)">
<text text-anchor="middle" x="90.5" y="-270.18" font-family="Times,serif" font-size="14.00">w_1_0</text>
</a>
</g>
</g>
<!-- x_1&#45;&gt;5004315856 -->
<g id="edge6" class="edge">
<title>x_1&#45;&gt;5004315856</title>
<path fill="none" stroke="#fdae61" d="M50.42,-391.88C68.48,-383.19 93.35,-368.75 109,-349.38 123.32,-331.66 116.16,-321.42 127,-301.38 129.4,-296.95 132.18,-292.46 135.1,-288.12"/>
<polygon fill="#fdae61" stroke="#fdae61" points="137.81,-290.36 140.73,-280.17 132.09,-286.31 137.81,-290.36"/>
<g id="a_edge6&#45;label"><a xlink:title="Value(data=&#45;1.93e&#45;01, grad=0.00e+00, label=w1)">
<text text-anchor="middle" x="90.5" y="-383.18" font-family="Times,serif" font-size="14.00">w_1_1</text>
</a>
</g>
</g>
<!-- x_1&#45;&gt;5004315280 -->
<g id="edge9" class="edge">
<title>x_1&#45;&gt;5004315280</title>
<path fill="none" stroke="#fee08b" d="M30.14,-419.46C33.97,-442.77 44.4,-482.45 72,-500.38 85.25,-508.99 101.67,-507.59 116.73,-502.72"/>
<polygon fill="#fee08b" stroke="#fee08b" points="117.88,-506.03 125.97,-499.2 115.38,-499.49 117.88,-506.03"/>
<g id="a_edge9&#45;label"><a xlink:title="Value(data=1.72e&#45;01, grad=0.00e+00, label=w1)">
<text text-anchor="middle" x="90.5" y="-510.18" font-family="Times,serif" font-size="14.00">w_1_2</text>
</a>
</g>
</g>
<!-- x_1&#45;&gt;5004315760 -->
<g id="edge12" class="edge">
<title>x_1&#45;&gt;5004315760</title>
<path fill="none" stroke="#fee08b" d="M32.93,-419.15C38.92,-436.96 50.95,-463.41 72,-475.38 86.29,-483.51 95.55,-484.84 109,-475.38 118.21,-468.91 138.05,-407.08 150.09,-367.17"/>
<polygon fill="#fee08b" stroke="#fee08b" points="153.39,-368.35 152.91,-357.76 146.69,-366.34 153.39,-368.35"/>
<g id="a_edge12&#45;label"><a xlink:title="Value(data=3.68e&#45;01, grad=0.00e+00, label=w1)">
<text text-anchor="middle" x="90.5" y="-485.18" font-family="Times,serif" font-size="14.00">w_1_3</text>
</a>
</g>
</g>
<!-- 5004315856&#45;&gt;5004314704 -->
<g id="edge15" class="edge">
<title>5004315856&#45;&gt;5004314704</title>
<path fill="none" stroke="#f46d43" d="M194.9,-241.9C200.86,-239.54 207.07,-237.27 213,-235.38 227.14,-230.9 242.86,-227 257.06,-223.86"/>
<polygon fill="#f46d43" stroke="#f46d43" points="257.53,-227.34 266.57,-221.83 256.06,-220.49 257.53,-227.34"/>
<g id="a_edge15&#45;label"><a xlink:title="Value(data=&#45;2.48e&#45;01, grad=0.00e+00, label=w1)">
<text text-anchor="middle" x="231.5" y="-239.18" font-family="Times,serif" font-size="14.00">w_1_0</text>
</a>
</g>
</g>
<!-- 5004315856&#45;&gt;5004260592 -->
<g id="edge20" class="edge">
<title>5004315856&#45;&gt;5004260592</title>
<path fill="none" stroke="#fdae61" d="M188.25,-233.73C190.87,-230.49 193.21,-227.02 195,-223.38 208.83,-195.23 189.45,-104.1 213,-83.38 228.68,-69.59 250.25,-78.34 268.11,-90.79"/>
<polygon fill="#fdae61" stroke="#fdae61" points="265.76,-93.4 275.85,-96.62 269.97,-87.81 265.76,-93.4"/>
<g id="a_edge20&#45;label"><a xlink:title="Value(data=&#45;9.46e&#45;02, grad=0.00e+00, label=w1)">
<text text-anchor="middle" x="231.5" y="-87.18" font-family="Times,serif" font-size="14.00">w_1_1</text>
</a>
</g>
</g>
<!-- 5004315856&#45;&gt;5004531312 -->
<g id="edge25" class="edge">
<title>5004315856&#45;&gt;5004531312</title>
<path fill="none" stroke="#a50026" d="M181.65,-278.96C186.7,-285.78 191.64,-293.55 195,-301.38 212.95,-343.3 178.55,-372.52 213,-402.38 224.9,-412.7 241.47,-415.2 257.02,-414.5"/>
<polygon fill="#a50026" stroke="#a50026" points="256.94,-418.02 266.58,-413.63 256.31,-411.05 256.94,-418.02"/>
<g id="a_edge25&#45;label"><a xlink:title="Value(data=&#45;9.01e&#45;01, grad=0.00e+00, label=w1)">
<text text-anchor="middle" x="231.5" y="-418.18" font-family="Times,serif" font-size="14.00">w_1_2</text>
</a>
</g>
</g>
<!-- 5004315280&#45;&gt;5004314704 -->
<g id="edge16" class="edge">
<title>5004315280&#45;&gt;5004314704</title>
<path fill="none" stroke="#fee08b" d="M194.91,-482.27C213.44,-482.03 235.68,-478.33 250,-464.38 279.54,-435.62 259.79,-413.79 268,-373.38 276.73,-330.46 287.1,-281.05 293.85,-249.08"/>
<polygon fill="#fee08b" stroke="#fee08b" points="297.21,-250.12 295.86,-239.61 290.36,-248.67 297.21,-250.12"/>
<g id="a_edge16&#45;label"><a xlink:title="Value(data=1.77e&#45;01, grad=0.00e+00, label=w2)">
<text text-anchor="middle" x="231.5" y="-484.18" font-family="Times,serif" font-size="14.00">w_2_0</text>
</a>
</g>
</g>
<!-- 5004315280&#45;&gt;5004260592 -->
<g id="edge21" class="edge">
<title>5004315280&#45;&gt;5004260592</title>
<path fill="none" stroke="#d9ef8b" d="M168.68,-456.42C182.23,-409.92 211.78,-308.86 213,-307.38 224.8,-293.15 239.07,-303.3 250,-288.38 278.24,-249.84 252.58,-227.61 268,-182.38 271.37,-172.49 276.19,-162.27 281.1,-153.05"/>
<polygon fill="#d9ef8b" stroke="#d9ef8b" points="284.08,-154.9 285.88,-144.46 277.96,-151.5 284.08,-154.9"/>
<g id="a_edge21&#45;label"><a xlink:title="Value(data=4.52e&#45;01, grad=0.00e+00, label=w2)">
<text text-anchor="middle" x="231.5" y="-311.18" font-family="Times,serif" font-size="14.00">w_2_1</text>
</a>
</g>
</g>
<!-- 5004315280&#45;&gt;5004531312 -->
<g id="edge26" class="edge">
<title>5004315280&#45;&gt;5004531312</title>
<path fill="none" stroke="#a6d96a" d="M186.64,-502.12C204.93,-516.13 230.05,-529.17 250,-516.38 276.44,-499.44 289.36,-464.95 295.55,-438.89"/>
<polygon fill="#a6d96a" stroke="#a6d96a" points="298.9,-439.95 297.56,-429.44 292.05,-438.49 298.9,-439.95"/>
<g id="a_edge26&#45;label"><a xlink:title="Value(data=7.84e&#45;01, grad=0.00e+00, label=w2)">
<text text-anchor="middle" x="231.5" y="-525.18" font-family="Times,serif" font-size="14.00">w_2_2</text>
</a>
</g>
</g>
<!-- 5004315760&#45;&gt;5004314704 -->
<g id="edge17" class="edge">
<title>5004315760&#45;&gt;5004314704</title>
<path fill="none" stroke="#a50026" d="M178.68,-310.52C187.99,-298.64 200.26,-284.36 213,-273.38 227.67,-260.74 233.79,-260.98 250,-250.38 252.87,-248.51 255.83,-246.55 258.79,-244.57"/>
<polygon fill="#a50026" stroke="#a50026" points="260.64,-247.54 266.97,-239.04 256.73,-241.74 260.64,-247.54"/>
<g id="a_edge17&#45;label"><a xlink:title="Value(data=&#45;9.11e&#45;01, grad=0.00e+00, label=w3)">
<text text-anchor="middle" x="231.5" y="-277.18" font-family="Times,serif" font-size="14.00">w_3_0</text>
</a>
</g>
</g>
<!-- 5004315760&#45;&gt;5004260592 -->
<g id="edge22" class="edge">
<title>5004315760&#45;&gt;5004260592</title>
<path fill="none" stroke="#fdae61" d="M182.63,-310.57C187.44,-304.13 192.02,-296.83 195,-289.38 207.57,-258.01 190.12,-163.25 213,-138.38 224.05,-126.38 240.76,-121.18 256.66,-119.23"/>
<polygon fill="#fdae61" stroke="#fdae61" points="256.81,-122.73 266.5,-118.45 256.25,-115.75 256.81,-122.73"/>
<g id="a_edge22&#45;label"><a xlink:title="Value(data=&#45;1.20e&#45;01, grad=0.00e+00, label=w3)">
<text text-anchor="middle" x="231.5" y="-142.18" font-family="Times,serif" font-size="14.00">w_3_1</text>
</a>
</g>
</g>
<!-- 5004315760&#45;&gt;5004531312 -->
<g id="edge27" class="edge">
<title>5004315760&#45;&gt;5004531312</title>
<path fill="none" stroke="#fdae61" d="M165.57,-356.08C170.94,-381.62 183.76,-421.93 213,-440.38 229.16,-450.58 248.78,-444.31 265.39,-434.42"/>
<polygon fill="#fdae61" stroke="#fdae61" points="267.05,-437.51 273.5,-429.11 263.22,-431.66 267.05,-437.51"/>
<g id="a_edge27&#45;label"><a xlink:title="Value(data=&#45;5.13e&#45;02, grad=0.00e+00, label=w3)">
<text text-anchor="middle" x="231.5" y="-449.18" font-family="Times,serif" font-size="14.00">w_3_2</text>
</a>
</g>
</g>
<!-- 4992809392 -->
<g id="node8" class="node">
<title>4992809392</title>
<polygon fill="none" stroke="black" points="134,-178.38 134,-214.38 188,-214.38 188,-178.38 134,-178.38"/>
<text text-anchor="middle" x="161" y="-192.68" font-family="Times,serif" font-size="14.00">bias</text>
</g>
<!-- 4992809392&#45;&gt;5004314704 -->
<g id="edge13" class="edge">
<title>4992809392&#45;&gt;5004314704</title>
<path fill="none" stroke="#f46d43" d="M187.62,-194.48C205.29,-193.7 229.24,-193.71 250,-197.38 252.44,-197.82 254.92,-198.35 257.41,-198.96"/>
<polygon fill="#f46d43" stroke="#f46d43" points="256.2,-202.26 266.77,-201.64 258.12,-195.53 256.2,-202.26"/>
<g id="a_edge13&#45;label"><a xlink:title="Value(data=&#45;2.61e&#45;01, grad=0.00e+00, label=b)">
<text text-anchor="middle" x="231.5" y="-201.18" font-family="Times,serif" font-size="14.00">b_0</text>
</a>
</g>
</g>
<!-- 4992809392&#45;&gt;5004260592 -->
<g id="edge18" class="edge">
<title>4992809392&#45;&gt;5004260592</title>
<path fill="none" stroke="#fee08b" d="M187.22,-178.56C190.23,-175.47 192.96,-172.06 195,-168.38 221.79,-120.06 171.2,-81.51 213,-45.38 225.44,-34.63 236.27,-36.33 250,-45.38 266.95,-56.56 256.61,-70.57 268,-87.38 268.3,-87.82 268.6,-88.26 268.9,-88.69"/>
<polygon fill="#fee08b" stroke="#fee08b" points="266.09,-90.78 275.08,-96.38 271.55,-86.39 266.09,-90.78"/>
<g id="a_edge18&#45;label"><a xlink:title="Value(data=8.08e&#45;02, grad=0.00e+00, label=b)">
<text text-anchor="middle" x="231.5" y="-49.18" font-family="Times,serif" font-size="14.00">b_1</text>
</a>
</g>
</g>
<!-- 4992809392&#45;&gt;5004531312 -->
<g id="edge23" class="edge">
<title>4992809392&#45;&gt;5004531312</title>
<path fill="none" stroke="#fee08b" d="M187.91,-214.08C190.66,-216.9 193.13,-220.02 195,-223.38 225.62,-278.64 175.74,-313.37 213,-364.38 214.58,-366.55 236.31,-376.68 257.78,-386.33"/>
<polygon fill="#fee08b" stroke="#fee08b" points="256.27,-389.49 266.83,-390.38 259.13,-383.1 256.27,-389.49"/>
<g id="a_edge23&#45;label"><a xlink:title="Value(data=6.44e&#45;02, grad=0.00e+00, label=b)">
<text text-anchor="middle" x="231.5" y="-385.18" font-family="Times,serif" font-size="14.00">b_2</text>
</a>
</g>
</g>
<!-- 5004530160 -->
<g id="node13" class="node">
<title>5004530160</title>
<polygon fill="none" stroke="black" points="409,-125.38 409,-171.38 477,-171.38 477,-125.38 409,-125.38"/>
<text text-anchor="middle" x="443" y="-156.18" font-family="Times,serif" font-size="14.00">layer: 3</text>
<polyline fill="none" stroke="black" points="409,-148.38 477,-148.38"/>
<text text-anchor="middle" x="443" y="-133.18" font-family="Times,serif" font-size="14.00">neuron: 0</text>
</g>
<!-- 5004314704&#45;&gt;5004530160 -->
<g id="edge29" class="edge">
<title>5004314704&#45;&gt;5004530160</title>
<path fill="none" stroke="#d9ef8b" d="M335.94,-199.51C354.81,-190.41 378.7,-178.89 399.03,-169.09"/>
<polygon fill="#d9ef8b" stroke="#d9ef8b" points="400.44,-172.3 407.93,-164.81 397.4,-165.99 400.44,-172.3"/>
<g id="a_edge29&#45;label"><a xlink:title="Value(data=4.56e&#45;01, grad=0.00e+00, label=w0)">
<text text-anchor="middle" x="372.5" y="-194.18" font-family="Times,serif" font-size="14.00">w_0_0</text>
</a>
</g>
</g>
<!-- 5004260592&#45;&gt;5004530160 -->
<g id="edge30" class="edge">
<title>5004260592&#45;&gt;5004530160</title>
<path fill="none" stroke="#fee08b" d="M335.94,-127.02C354.55,-130.77 378.05,-135.5 398.19,-139.56"/>
<polygon fill="#fee08b" stroke="#fee08b" points="397.32,-142.95 407.81,-141.5 398.7,-136.09 397.32,-142.95"/>
<g id="a_edge30&#45;label"><a xlink:title="Value(data=2.91e&#45;01, grad=0.00e+00, label=w1)">
<text text-anchor="middle" x="372.5" y="-142.18" font-family="Times,serif" font-size="14.00">w_1_0</text>
</a>
</g>
</g>
<!-- 5004531312&#45;&gt;5004530160 -->
<g id="edge31" class="edge">
<title>5004531312&#45;&gt;5004530160</title>
<path fill="none" stroke="#fdae61" d="M315.34,-382.58C340.06,-336.85 395.77,-233.85 424.35,-181.01"/>
<polygon fill="#fdae61" stroke="#fdae61" points="427.29,-182.93 428.97,-172.47 421.14,-179.6 427.29,-182.93"/>
<g id="a_edge31&#45;label"><a xlink:title="Value(data=&#45;1.40e&#45;01, grad=0.00e+00, label=w2)">
<text text-anchor="middle" x="372.5" y="-311.18" font-family="Times,serif" font-size="14.00">w_2_0</text>
</a>
</g>
</g>
<!-- 5000871408 -->
<g id="node12" class="node">
<title>5000871408</title>
<polygon fill="none" stroke="black" points="275,-42.38 275,-78.38 329,-78.38 329,-42.38 275,-42.38"/>
<text text-anchor="middle" x="302" y="-56.68" font-family="Times,serif" font-size="14.00">bias</text>
</g>
<!-- 5000871408&#45;&gt;5004530160 -->
<g id="edge28" class="edge">
<title>5000871408&#45;&gt;5004530160</title>
<path fill="none" stroke="#fdae61" d="M328.75,-74.87C346.47,-85.01 370.44,-99.08 391,-112.38 394.28,-114.51 397.66,-116.75 401.03,-119.03"/>
<polygon fill="#fdae61" stroke="#fdae61" points="398.97,-121.87 409.2,-124.65 402.94,-116.1 398.97,-121.87"/>
<g id="a_edge28&#45;label"><a xlink:title="Value(data=&#45;2.09e&#45;03, grad=0.00e+00, label=b)">
<text text-anchor="middle" x="372.5" y="-116.18" font-family="Times,serif" font-size="14.00">b_0</text>
</a>
</g>
</g>
</g>
</svg>
