<?xml version="1.0" encoding="UTF-8" standalone="no"?>
<!DOCTYPE svg PUBLIC "-//W3C//DTD SVG 1.1//EN"
 "http://www.w3.org/Graphics/SVG/1.1/DTD/svg11.dtd">
<!-- Generated by graphviz version 7.1.0 (20230121.1956)
 -->
<!-- Pages: 1 -->
<svg width="746pt" height="342pt"
 viewBox="0.00 0.00 746.00 342.00" xmlns="http://www.w3.org/2000/svg" xmlns:xlink="http://www.w3.org/1999/xlink">
<g id="graph0" class="graph" transform="scale(1 1) rotate(0) translate(4 338)">
<polygon fill="white" stroke="none" points="-4,4 -4,-338 742,-338 742,4 -4,4"/>
<!-- 4428404192 -->
<g id="node1" class="node">
<title>4428404192</title>
<polygon fill="none" stroke="black" points="0.5,-264.5 0.5,-333.5 67.5,-333.5 67.5,-264.5 0.5,-264.5"/>
<text text-anchor="middle" x="34" y="-318.3" font-family="Times,serif" font-size="14.00">label: w1</text>
<polyline fill="none" stroke="black" points="0.5,-310.5 67.5,-310.5"/>
<text text-anchor="middle" x="34" y="-295.3" font-family="Times,serif" font-size="14.00">data: 3.0</text>
<polyline fill="none" stroke="black" points="0.5,-287.5 67.5,-287.5"/>
<text text-anchor="middle" x="34" y="-272.3" font-family="Times,serif" font-size="14.00">grad: 0.0</text>
</g>
<!-- op_4427634528 -->
<g id="node8" class="node">
<title>op_4427634528</title>
<ellipse fill="none" stroke="black" cx="131" cy="-211" rx="27" ry="18"/>
<text text-anchor="middle" x="131" y="-207.3" font-family="Times,serif" font-size="14.00">*</text>
</g>
<!-- 4428404192&#45;&gt;op_4427634528 -->
<g id="edge7" class="edge">
<title>4428404192&#45;&gt;op_4427634528</title>
<path fill="none" stroke="black" d="M67.43,-268.96C80.02,-257.3 94.19,-244.17 105.86,-233.36"/>
<polygon fill="black" stroke="black" points="108.16,-236.01 113.11,-226.64 103.4,-230.87 108.16,-236.01"/>
</g>
<!-- 4428404768 -->
<g id="node2" class="node">
<title>4428404768</title>
<polygon fill="none" stroke="black" points="1.5,-88.5 1.5,-157.5 66.5,-157.5 66.5,-88.5 1.5,-88.5"/>
<text text-anchor="middle" x="34" y="-142.3" font-family="Times,serif" font-size="14.00">label: x2</text>
<polyline fill="none" stroke="black" points="1.5,-134.5 66.5,-134.5"/>
<text text-anchor="middle" x="34" y="-119.3" font-family="Times,serif" font-size="14.00">data: 2.0</text>
<polyline fill="none" stroke="black" points="1.5,-111.5 66.5,-111.5"/>
<text text-anchor="middle" x="34" y="-96.3" font-family="Times,serif" font-size="14.00">grad: 0.0</text>
</g>
<!-- op_4428392912 -->
<g id="node11" class="node">
<title>op_4428392912</title>
<ellipse fill="none" stroke="black" cx="131" cy="-123" rx="27" ry="18"/>
<text text-anchor="middle" x="131" y="-119.3" font-family="Times,serif" font-size="14.00">*</text>
</g>
<!-- 4428404768&#45;&gt;op_4428392912 -->
<g id="edge10" class="edge">
<title>4428404768&#45;&gt;op_4428392912</title>
<path fill="none" stroke="black" d="M66.37,-123C74.69,-123 83.77,-123 92.38,-123"/>
<polygon fill="black" stroke="black" points="92.23,-126.5 102.23,-123 92.23,-119.5 92.23,-126.5"/>
</g>
<!-- 4428392048 -->
<g id="node3" class="node">
<title>4428392048</title>
<polygon fill="none" stroke="black" points="673,-88.5 673,-157.5 738,-157.5 738,-88.5 673,-88.5"/>
<text text-anchor="middle" x="705.5" y="-142.3" font-family="Times,serif" font-size="14.00">label: n</text>
<polyline fill="none" stroke="black" points="673,-134.5 738,-134.5"/>
<text text-anchor="middle" x="705.5" y="-119.3" font-family="Times,serif" font-size="14.00">data: 2.0</text>
<polyline fill="none" stroke="black" points="673,-111.5 738,-111.5"/>
<text text-anchor="middle" x="705.5" y="-96.3" font-family="Times,serif" font-size="14.00">grad: 0.0</text>
</g>
<!-- op_4428392048 -->
<g id="node4" class="node">
<title>op_4428392048</title>
<ellipse fill="none" stroke="black" cx="610" cy="-123" rx="27" ry="18"/>
<text text-anchor="middle" x="610" y="-119.3" font-family="Times,serif" font-size="14.00">+</text>
</g>
<!-- op_4428392048&#45;&gt;4428392048 -->
<g id="edge1" class="edge">
<title>op_4428392048&#45;&gt;4428392048</title>
<path fill="none" stroke="black" d="M637.04,-123C644.77,-123 653.44,-123 661.93,-123"/>
<polygon fill="black" stroke="black" points="661.77,-126.5 671.77,-123 661.77,-119.5 661.77,-126.5"/>
</g>
<!-- 4428405488 -->
<g id="node5" class="node">
<title>4428405488</title>
<polygon fill="none" stroke="black" points="1.5,-176.5 1.5,-245.5 66.5,-245.5 66.5,-176.5 1.5,-176.5"/>
<text text-anchor="middle" x="34" y="-230.3" font-family="Times,serif" font-size="14.00">label: x1</text>
<polyline fill="none" stroke="black" points="1.5,-222.5 66.5,-222.5"/>
<text text-anchor="middle" x="34" y="-207.3" font-family="Times,serif" font-size="14.00">data: 1.0</text>
<polyline fill="none" stroke="black" points="1.5,-199.5 66.5,-199.5"/>
<text text-anchor="middle" x="34" y="-184.3" font-family="Times,serif" font-size="14.00">grad: 0.0</text>
</g>
<!-- 4428405488&#45;&gt;op_4427634528 -->
<g id="edge6" class="edge">
<title>4428405488&#45;&gt;op_4427634528</title>
<path fill="none" stroke="black" d="M66.37,-211C74.69,-211 83.77,-211 92.38,-211"/>
<polygon fill="black" stroke="black" points="92.23,-214.5 102.23,-211 92.23,-207.5 92.23,-214.5"/>
</g>
<!-- 4428404000 -->
<g id="node6" class="node">
<title>4428404000</title>
<polygon fill="none" stroke="black" points="444.5,-44.5 444.5,-113.5 509.5,-113.5 509.5,-44.5 444.5,-44.5"/>
<text text-anchor="middle" x="477" y="-98.3" font-family="Times,serif" font-size="14.00">label: b</text>
<polyline fill="none" stroke="black" points="444.5,-90.5 509.5,-90.5"/>
<text text-anchor="middle" x="477" y="-75.3" font-family="Times,serif" font-size="14.00">data: 1.0</text>
<polyline fill="none" stroke="black" points="444.5,-67.5 509.5,-67.5"/>
<text text-anchor="middle" x="477" y="-52.3" font-family="Times,serif" font-size="14.00">grad: 0.0</text>
</g>
<!-- 4428404000&#45;&gt;op_4428392048 -->
<g id="edge5" class="edge">
<title>4428404000&#45;&gt;op_4428392048</title>
<path fill="none" stroke="black" d="M509.38,-89.54C528.96,-96.12 554.18,-104.59 574.35,-111.36"/>
<polygon fill="black" stroke="black" points="573.23,-114.68 583.83,-114.54 575.46,-108.04 573.23,-114.68"/>
</g>
<!-- 4427634528 -->
<g id="node7" class="node">
<title>4427634528</title>
<polygon fill="none" stroke="black" points="194,-176.5 194,-245.5 281,-245.5 281,-176.5 194,-176.5"/>
<text text-anchor="middle" x="237.5" y="-230.3" font-family="Times,serif" font-size="14.00">label: x1*w1</text>
<polyline fill="none" stroke="black" points="194,-222.5 281,-222.5"/>
<text text-anchor="middle" x="237.5" y="-207.3" font-family="Times,serif" font-size="14.00">data: 3.0</text>
<polyline fill="none" stroke="black" points="194,-199.5 281,-199.5"/>
<text text-anchor="middle" x="237.5" y="-184.3" font-family="Times,serif" font-size="14.00">grad: 0.0</text>
</g>
<!-- op_4428393440 -->
<g id="node13" class="node">
<title>op_4428393440</title>
<ellipse fill="none" stroke="black" cx="344" cy="-167" rx="27" ry="18"/>
<text text-anchor="middle" x="344" y="-163.3" font-family="Times,serif" font-size="14.00">+</text>
</g>
<!-- 4427634528&#45;&gt;op_4428393440 -->
<g id="edge8" class="edge">
<title>4427634528&#45;&gt;op_4428393440</title>
<path fill="none" stroke="black" d="M280.7,-193.23C290.47,-189.12 300.73,-184.8 310.04,-180.88"/>
<polygon fill="black" stroke="black" points="311.19,-184.19 319.05,-177.08 308.48,-177.74 311.19,-184.19"/>
</g>
<!-- op_4427634528&#45;&gt;4427634528 -->
<g id="edge2" class="edge">
<title>op_4427634528&#45;&gt;4427634528</title>
<path fill="none" stroke="black" d="M158.37,-211C165.94,-211 174.47,-211 183.05,-211"/>
<polygon fill="black" stroke="black" points="182.76,-214.5 192.76,-211 182.76,-207.5 182.76,-214.5"/>
</g>
<!-- 4428405632 -->
<g id="node9" class="node">
<title>4428405632</title>
<polygon fill="none" stroke="black" points="0,-0.5 0,-69.5 68,-69.5 68,-0.5 0,-0.5"/>
<text text-anchor="middle" x="34" y="-54.3" font-family="Times,serif" font-size="14.00">label: w2</text>
<polyline fill="none" stroke="black" points="0,-46.5 68,-46.5"/>
<text text-anchor="middle" x="34" y="-31.3" font-family="Times,serif" font-size="14.00">data: &#45;1.0</text>
<polyline fill="none" stroke="black" points="0,-23.5 68,-23.5"/>
<text text-anchor="middle" x="34" y="-8.3" font-family="Times,serif" font-size="14.00">grad: 0.0</text>
</g>
<!-- 4428405632&#45;&gt;op_4428392912 -->
<g id="edge9" class="edge">
<title>4428405632&#45;&gt;op_4428392912</title>
<path fill="none" stroke="black" d="M67.96,-65.53C80.51,-77.16 94.57,-90.18 106.12,-100.88"/>
<polygon fill="black" stroke="black" points="103.58,-103.3 113.29,-107.53 108.34,-98.16 103.58,-103.3"/>
</g>
<!-- 4428392912 -->
<g id="node10" class="node">
<title>4428392912</title>
<polygon fill="none" stroke="black" points="194,-88.5 194,-157.5 281,-157.5 281,-88.5 194,-88.5"/>
<text text-anchor="middle" x="237.5" y="-142.3" font-family="Times,serif" font-size="14.00">label: x2*w2</text>
<polyline fill="none" stroke="black" points="194,-134.5 281,-134.5"/>
<text text-anchor="middle" x="237.5" y="-119.3" font-family="Times,serif" font-size="14.00">data: &#45;2.0</text>
<polyline fill="none" stroke="black" points="194,-111.5 281,-111.5"/>
<text text-anchor="middle" x="237.5" y="-96.3" font-family="Times,serif" font-size="14.00">grad: 0.0</text>
</g>
<!-- 4428392912&#45;&gt;op_4428393440 -->
<g id="edge11" class="edge">
<title>4428392912&#45;&gt;op_4428393440</title>
<path fill="none" stroke="black" d="M280.7,-140.77C290.47,-144.88 300.73,-149.2 310.04,-153.12"/>
<polygon fill="black" stroke="black" points="308.48,-156.26 319.05,-156.92 311.19,-149.81 308.48,-156.26"/>
</g>
<!-- op_4428392912&#45;&gt;4428392912 -->
<g id="edge3" class="edge">
<title>op_4428392912&#45;&gt;4428392912</title>
<path fill="none" stroke="black" d="M158.37,-123C165.94,-123 174.47,-123 183.05,-123"/>
<polygon fill="black" stroke="black" points="182.76,-126.5 192.76,-123 182.76,-119.5 182.76,-126.5"/>
</g>
<!-- 4428393440 -->
<g id="node12" class="node">
<title>4428393440</title>
<polygon fill="none" stroke="black" points="407,-132.5 407,-201.5 547,-201.5 547,-132.5 407,-132.5"/>
<text text-anchor="middle" x="477" y="-186.3" font-family="Times,serif" font-size="14.00">label: x1*w1 + x2*w2</text>
<polyline fill="none" stroke="black" points="407,-178.5 547,-178.5"/>
<text text-anchor="middle" x="477" y="-163.3" font-family="Times,serif" font-size="14.00">data: 1.0</text>
<polyline fill="none" stroke="black" points="407,-155.5 547,-155.5"/>
<text text-anchor="middle" x="477" y="-140.3" font-family="Times,serif" font-size="14.00">grad: 0.0</text>
</g>
<!-- 4428393440&#45;&gt;op_4428392048 -->
<g id="edge12" class="edge">
<title>4428393440&#45;&gt;op_4428392048</title>
<path fill="none" stroke="black" d="M546.95,-143.84C556.55,-140.62 566.05,-137.42 574.63,-134.54"/>
<polygon fill="black" stroke="black" points="575.5,-137.95 583.86,-131.44 573.27,-131.31 575.5,-137.95"/>
</g>
<!-- op_4428393440&#45;&gt;4428393440 -->
<g id="edge4" class="edge">
<title>op_4428393440&#45;&gt;4428393440</title>
<path fill="none" stroke="black" d="M371.19,-167C378.6,-167 387.06,-167 395.9,-167"/>
<polygon fill="black" stroke="black" points="395.73,-170.5 405.73,-167 395.73,-163.5 395.73,-170.5"/>
</g>
</g>
</svg>
