<?xml version="1.0" encoding="UTF-8" standalone="no"?>
<!DOCTYPE svg PUBLIC "-//W3C//DTD SVG 1.1//EN"
 "http://www.w3.org/Graphics/SVG/1.1/DTD/svg11.dtd">
<!-- Generated by graphviz version 7.1.0 (20230121.1956)
 -->
<!-- Pages: 1 -->
<svg width="665pt" height="254pt"
 viewBox="0.00 0.00 665.00 254.00" xmlns="http://www.w3.org/2000/svg" xmlns:xlink="http://www.w3.org/1999/xlink">
<g id="graph0" class="graph" transform="scale(1 1) rotate(0) translate(4 250)">
<polygon fill="white" stroke="none" points="-4,4 -4,-250 661,-250 661,4 -4,4"/>
<!-- 4428402800 -->
<g id="node1" class="node">
<title>4428402800</title>
<polygon fill="none" stroke="black" points="0,-176.5 0,-245.5 70,-245.5 70,-176.5 0,-176.5"/>
<text text-anchor="middle" x="35" y="-230.3" font-family="Times,serif" font-size="14.00">label: b</text>
<polyline fill="none" stroke="black" points="0,-222.5 70,-222.5"/>
<text text-anchor="middle" x="35" y="-207.3" font-family="Times,serif" font-size="14.00">data: &#45;3.0</text>
<polyline fill="none" stroke="black" points="0,-199.5 70,-199.5"/>
<text text-anchor="middle" x="35" y="-184.3" font-family="Times,serif" font-size="14.00">grad: &#45;4.0</text>
</g>
<!-- op_4428405056 -->
<g id="node8" class="node">
<title>op_4428405056</title>
<ellipse fill="none" stroke="black" cx="133" cy="-167" rx="27" ry="18"/>
<text text-anchor="middle" x="133" y="-163.3" font-family="Times,serif" font-size="14.00">*</text>
</g>
<!-- 4428402800&#45;&gt;op_4428405056 -->
<g id="edge9" class="edge">
<title>4428402800&#45;&gt;op_4428405056</title>
<path fill="none" stroke="black" d="M69.85,-195.49C79.57,-191.03 90.15,-186.18 99.78,-181.77"/>
<polygon fill="black" stroke="black" points="101.14,-185 108.77,-177.65 98.22,-178.63 101.14,-185"/>
</g>
<!-- 4428405872 -->
<g id="node2" class="node">
<title>4428405872</title>
<polygon fill="none" stroke="black" points="394,-0.5 394,-69.5 462,-69.5 462,-0.5 394,-0.5"/>
<text text-anchor="middle" x="428" y="-54.3" font-family="Times,serif" font-size="14.00">label: f</text>
<polyline fill="none" stroke="black" points="394,-46.5 462,-46.5"/>
<text text-anchor="middle" x="428" y="-31.3" font-family="Times,serif" font-size="14.00">data: &#45;2.0</text>
<polyline fill="none" stroke="black" points="394,-23.5 462,-23.5"/>
<text text-anchor="middle" x="428" y="-8.3" font-family="Times,serif" font-size="14.00">grad: 4.0</text>
</g>
<!-- op_4428392336 -->
<g id="node10" class="node">
<title>op_4428392336</title>
<ellipse fill="none" stroke="black" cx="526" cy="-79" rx="27" ry="18"/>
<text text-anchor="middle" x="526" y="-75.3" font-family="Times,serif" font-size="14.00">*</text>
</g>
<!-- 4428405872&#45;&gt;op_4428392336 -->
<g id="edge5" class="edge">
<title>4428405872&#45;&gt;op_4428392336</title>
<path fill="none" stroke="black" d="M461.77,-50.02C471.82,-54.63 482.87,-59.69 492.88,-64.28"/>
<polygon fill="black" stroke="black" points="491.31,-67.41 501.86,-68.39 494.22,-61.04 491.31,-67.41"/>
</g>
<!-- 4428406448 -->
<g id="node3" class="node">
<title>4428406448</title>
<polygon fill="none" stroke="black" points="393,-88.5 393,-157.5 463,-157.5 463,-88.5 393,-88.5"/>
<text text-anchor="middle" x="428" y="-142.3" font-family="Times,serif" font-size="14.00">label: d</text>
<polyline fill="none" stroke="black" points="393,-134.5 463,-134.5"/>
<text text-anchor="middle" x="428" y="-119.3" font-family="Times,serif" font-size="14.00">data: 4.0</text>
<polyline fill="none" stroke="black" points="393,-111.5 463,-111.5"/>
<text text-anchor="middle" x="428" y="-96.3" font-family="Times,serif" font-size="14.00">grad: &#45;2.0</text>
</g>
<!-- 4428406448&#45;&gt;op_4428392336 -->
<g id="edge7" class="edge">
<title>4428406448&#45;&gt;op_4428392336</title>
<path fill="none" stroke="black" d="M462.85,-107.49C472.57,-103.03 483.15,-98.18 492.78,-93.77"/>
<polygon fill="black" stroke="black" points="494.14,-97 501.77,-89.65 491.22,-90.63 494.14,-97"/>
</g>
<!-- op_4428406448 -->
<g id="node4" class="node">
<title>op_4428406448</title>
<ellipse fill="none" stroke="black" cx="330" cy="-123" rx="27" ry="18"/>
<text text-anchor="middle" x="330" y="-119.3" font-family="Times,serif" font-size="14.00">+</text>
</g>
<!-- op_4428406448&#45;&gt;4428406448 -->
<g id="edge1" class="edge">
<title>op_4428406448&#45;&gt;4428406448</title>
<path fill="none" stroke="black" d="M357.49,-123C364.96,-123 373.3,-123 381.55,-123"/>
<polygon fill="black" stroke="black" points="381.52,-126.5 391.52,-123 381.52,-119.5 381.52,-126.5"/>
</g>
<!-- 4428402896 -->
<g id="node5" class="node">
<title>4428402896</title>
<polygon fill="none" stroke="black" points="2.5,-88.5 2.5,-157.5 67.5,-157.5 67.5,-88.5 2.5,-88.5"/>
<text text-anchor="middle" x="35" y="-142.3" font-family="Times,serif" font-size="14.00">label: a</text>
<polyline fill="none" stroke="black" points="2.5,-134.5 67.5,-134.5"/>
<text text-anchor="middle" x="35" y="-119.3" font-family="Times,serif" font-size="14.00">data: 2.0</text>
<polyline fill="none" stroke="black" points="2.5,-111.5 67.5,-111.5"/>
<text text-anchor="middle" x="35" y="-96.3" font-family="Times,serif" font-size="14.00">grad: 6.0</text>
</g>
<!-- 4428402896&#45;&gt;op_4428405056 -->
<g id="edge6" class="edge">
<title>4428402896&#45;&gt;op_4428405056</title>
<path fill="none" stroke="black" d="M67.43,-137.41C77.82,-142.17 89.39,-147.47 99.84,-152.26"/>
<polygon fill="black" stroke="black" points="98.29,-155.4 108.84,-156.39 101.21,-149.04 98.29,-155.4"/>
</g>
<!-- 4428402944 -->
<g id="node6" class="node">
<title>4428402944</title>
<polygon fill="none" stroke="black" points="196,-44.5 196,-113.5 267,-113.5 267,-44.5 196,-44.5"/>
<text text-anchor="middle" x="231.5" y="-98.3" font-family="Times,serif" font-size="14.00">label: c</text>
<polyline fill="none" stroke="black" points="196,-90.5 267,-90.5"/>
<text text-anchor="middle" x="231.5" y="-75.3" font-family="Times,serif" font-size="14.00">data: 10.0</text>
<polyline fill="none" stroke="black" points="196,-67.5 267,-67.5"/>
<text text-anchor="middle" x="231.5" y="-52.3" font-family="Times,serif" font-size="14.00">grad: &#45;2.0</text>
</g>
<!-- 4428402944&#45;&gt;op_4428406448 -->
<g id="edge8" class="edge">
<title>4428402944&#45;&gt;op_4428406448</title>
<path fill="none" stroke="black" d="M266.79,-94.64C276.56,-99.09 287.15,-103.92 296.78,-108.31"/>
<polygon fill="black" stroke="black" points="295.23,-111.45 305.78,-112.41 298.13,-105.08 295.23,-111.45"/>
</g>
<!-- 4428405056 -->
<g id="node7" class="node">
<title>4428405056</title>
<polygon fill="none" stroke="black" points="196.5,-132.5 196.5,-201.5 266.5,-201.5 266.5,-132.5 196.5,-132.5"/>
<text text-anchor="middle" x="231.5" y="-186.3" font-family="Times,serif" font-size="14.00">label: e</text>
<polyline fill="none" stroke="black" points="196.5,-178.5 266.5,-178.5"/>
<text text-anchor="middle" x="231.5" y="-163.3" font-family="Times,serif" font-size="14.00">data: &#45;6.0</text>
<polyline fill="none" stroke="black" points="196.5,-155.5 266.5,-155.5"/>
<text text-anchor="middle" x="231.5" y="-140.3" font-family="Times,serif" font-size="14.00">grad: &#45;2.0</text>
</g>
<!-- 4428405056&#45;&gt;op_4428406448 -->
<g id="edge4" class="edge">
<title>4428405056&#45;&gt;op_4428406448</title>
<path fill="none" stroke="black" d="M266.25,-151.61C276.23,-147.06 287.12,-142.1 296.99,-137.6"/>
<polygon fill="black" stroke="black" points="298.17,-140.9 305.82,-133.57 295.27,-134.53 298.17,-140.9"/>
</g>
<!-- op_4428405056&#45;&gt;4428405056 -->
<g id="edge2" class="edge">
<title>op_4428405056&#45;&gt;4428405056</title>
<path fill="none" stroke="black" d="M160.37,-167C168.04,-167 176.65,-167 185.14,-167"/>
<polygon fill="black" stroke="black" points="185.03,-170.5 195.03,-167 185.03,-163.5 185.03,-170.5"/>
</g>
<!-- 4428392336 -->
<g id="node9" class="node">
<title>4428392336</title>
<polygon fill="none" stroke="black" points="589,-44.5 589,-113.5 657,-113.5 657,-44.5 589,-44.5"/>
<text text-anchor="middle" x="623" y="-98.3" font-family="Times,serif" font-size="14.00">label: L</text>
<polyline fill="none" stroke="black" points="589,-90.5 657,-90.5"/>
<text text-anchor="middle" x="623" y="-75.3" font-family="Times,serif" font-size="14.00">data: &#45;8.0</text>
<polyline fill="none" stroke="black" points="589,-67.5 657,-67.5"/>
<text text-anchor="middle" x="623" y="-52.3" font-family="Times,serif" font-size="14.00">grad: 1</text>
</g>
<!-- op_4428392336&#45;&gt;4428392336 -->
<g id="edge3" class="edge">
<title>op_4428392336&#45;&gt;4428392336</title>
<path fill="none" stroke="black" d="M553.46,-79C561.09,-79 569.62,-79 578,-79"/>
<polygon fill="black" stroke="black" points="577.73,-82.5 587.73,-79 577.73,-75.5 577.73,-82.5"/>
</g>
</g>
</svg>
