<?xml version="1.0" encoding="UTF-8" standalone="no"?>
<!DOCTYPE svg PUBLIC "-//W3C//DTD SVG 1.1//EN"
 "http://www.w3.org/Graphics/SVG/1.1/DTD/svg11.dtd">
<!-- Generated by graphviz version 7.1.0 (20230121.1956)
 -->
<!-- Pages: 1 -->
<svg width="747pt" height="342pt"
 viewBox="0.00 0.00 747.00 342.00" xmlns="http://www.w3.org/2000/svg" xmlns:xlink="http://www.w3.org/1999/xlink">
<g id="graph0" class="graph" transform="scale(1 1) rotate(0) translate(4 338)">
<polygon fill="white" stroke="none" points="-4,4 -4,-338 743,-338 743,4 -4,4"/>
<!-- 4428404192 -->
<g id="node1" class="node">
<title>4428404192</title>
<polygon fill="none" stroke="black" points="1.5,-264.5 1.5,-333.5 68.5,-333.5 68.5,-264.5 1.5,-264.5"/>
<text text-anchor="middle" x="35" y="-318.3" font-family="Times,serif" font-size="14.00">label: w1</text>
<polyline fill="none" stroke="black" points="1.5,-310.5 68.5,-310.5"/>
<text text-anchor="middle" x="35" y="-295.3" font-family="Times,serif" font-size="14.00">data: 3.0</text>
<polyline fill="none" stroke="black" points="1.5,-287.5 68.5,-287.5"/>
<text text-anchor="middle" x="35" y="-272.3" font-family="Times,serif" font-size="14.00">grad: 1.0</text>
</g>
<!-- op_4427634528 -->
<g id="node8" class="node">
<title>op_4427634528</title>
<ellipse fill="none" stroke="black" cx="133" cy="-211" rx="27" ry="18"/>
<text text-anchor="middle" x="133" y="-207.3" font-family="Times,serif" font-size="14.00">*</text>
</g>
<!-- 4428404192&#45;&gt;op_4427634528 -->
<g id="edge7" class="edge">
<title>4428404192&#45;&gt;op_4427634528</title>
<path fill="none" stroke="black" d="M68.23,-269.45C81.21,-257.56 95.91,-244.08 107.93,-233.07"/>
<polygon fill="black" stroke="black" points="110.02,-235.9 115.02,-226.56 105.29,-230.74 110.02,-235.9"/>
</g>
<!-- 4428404768 -->
<g id="node2" class="node">
<title>4428404768</title>
<polygon fill="none" stroke="black" points="0,-88.5 0,-157.5 70,-157.5 70,-88.5 0,-88.5"/>
<text text-anchor="middle" x="35" y="-142.3" font-family="Times,serif" font-size="14.00">label: x2</text>
<polyline fill="none" stroke="black" points="0,-134.5 70,-134.5"/>
<text text-anchor="middle" x="35" y="-119.3" font-family="Times,serif" font-size="14.00">data: 2.0</text>
<polyline fill="none" stroke="black" points="0,-111.5 70,-111.5"/>
<text text-anchor="middle" x="35" y="-96.3" font-family="Times,serif" font-size="14.00">grad: &#45;1.0</text>
</g>
<!-- op_4428392912 -->
<g id="node11" class="node">
<title>op_4428392912</title>
<ellipse fill="none" stroke="black" cx="133" cy="-123" rx="27" ry="18"/>
<text text-anchor="middle" x="133" y="-119.3" font-family="Times,serif" font-size="14.00">*</text>
</g>
<!-- 4428404768&#45;&gt;op_4428392912 -->
<g id="edge10" class="edge">
<title>4428404768&#45;&gt;op_4428392912</title>
<path fill="none" stroke="black" d="M69.85,-123C77.75,-123 86.22,-123 94.29,-123"/>
<polygon fill="black" stroke="black" points="94.18,-126.5 104.18,-123 94.18,-119.5 94.18,-126.5"/>
</g>
<!-- 4428392048 -->
<g id="node3" class="node">
<title>4428392048</title>
<polygon fill="none" stroke="black" points="675,-88.5 675,-157.5 739,-157.5 739,-88.5 675,-88.5"/>
<text text-anchor="middle" x="707" y="-142.3" font-family="Times,serif" font-size="14.00">label: n</text>
<polyline fill="none" stroke="black" points="675,-134.5 739,-134.5"/>
<text text-anchor="middle" x="707" y="-119.3" font-family="Times,serif" font-size="14.00">data: 2.0</text>
<polyline fill="none" stroke="black" points="675,-111.5 739,-111.5"/>
<text text-anchor="middle" x="707" y="-96.3" font-family="Times,serif" font-size="14.00">grad: 1</text>
</g>
<!-- op_4428392048 -->
<g id="node4" class="node">
<title>op_4428392048</title>
<ellipse fill="none" stroke="black" cx="612" cy="-123" rx="27" ry="18"/>
<text text-anchor="middle" x="612" y="-119.3" font-family="Times,serif" font-size="14.00">+</text>
</g>
<!-- op_4428392048&#45;&gt;4428392048 -->
<g id="edge1" class="edge">
<title>op_4428392048&#45;&gt;4428392048</title>
<path fill="none" stroke="black" d="M639.4,-123C646.99,-123 655.47,-123 663.76,-123"/>
<polygon fill="black" stroke="black" points="663.74,-126.5 673.74,-123 663.74,-119.5 663.74,-126.5"/>
</g>
<!-- 4428405488 -->
<g id="node5" class="node">
<title>4428405488</title>
<polygon fill="none" stroke="black" points="2.5,-176.5 2.5,-245.5 67.5,-245.5 67.5,-176.5 2.5,-176.5"/>
<text text-anchor="middle" x="35" y="-230.3" font-family="Times,serif" font-size="14.00">label: x1</text>
<polyline fill="none" stroke="black" points="2.5,-222.5 67.5,-222.5"/>
<text text-anchor="middle" x="35" y="-207.3" font-family="Times,serif" font-size="14.00">data: 1.0</text>
<polyline fill="none" stroke="black" points="2.5,-199.5 67.5,-199.5"/>
<text text-anchor="middle" x="35" y="-184.3" font-family="Times,serif" font-size="14.00">grad: 3.0</text>
</g>
<!-- 4428405488&#45;&gt;op_4427634528 -->
<g id="edge6" class="edge">
<title>4428405488&#45;&gt;op_4427634528</title>
<path fill="none" stroke="black" d="M67.43,-211C76.03,-211 85.43,-211 94.33,-211"/>
<polygon fill="black" stroke="black" points="94.12,-214.5 104.12,-211 94.12,-207.5 94.12,-214.5"/>
</g>
<!-- 4428404000 -->
<g id="node6" class="node">
<title>4428404000</title>
<polygon fill="none" stroke="black" points="446.5,-44.5 446.5,-113.5 511.5,-113.5 511.5,-44.5 446.5,-44.5"/>
<text text-anchor="middle" x="479" y="-98.3" font-family="Times,serif" font-size="14.00">label: b</text>
<polyline fill="none" stroke="black" points="446.5,-90.5 511.5,-90.5"/>
<text text-anchor="middle" x="479" y="-75.3" font-family="Times,serif" font-size="14.00">data: 1.0</text>
<polyline fill="none" stroke="black" points="446.5,-67.5 511.5,-67.5"/>
<text text-anchor="middle" x="479" y="-52.3" font-family="Times,serif" font-size="14.00">grad: 1.0</text>
</g>
<!-- 4428404000&#45;&gt;op_4428392048 -->
<g id="edge5" class="edge">
<title>4428404000&#45;&gt;op_4428392048</title>
<path fill="none" stroke="black" d="M511.38,-89.54C530.96,-96.12 556.18,-104.59 576.35,-111.36"/>
<polygon fill="black" stroke="black" points="575.23,-114.68 585.83,-114.54 577.46,-108.04 575.23,-114.68"/>
</g>
<!-- 4427634528 -->
<g id="node7" class="node">
<title>4427634528</title>
<polygon fill="none" stroke="black" points="196,-176.5 196,-245.5 283,-245.5 283,-176.5 196,-176.5"/>
<text text-anchor="middle" x="239.5" y="-230.3" font-family="Times,serif" font-size="14.00">label: x1*w1</text>
<polyline fill="none" stroke="black" points="196,-222.5 283,-222.5"/>
<text text-anchor="middle" x="239.5" y="-207.3" font-family="Times,serif" font-size="14.00">data: 3.0</text>
<polyline fill="none" stroke="black" points="196,-199.5 283,-199.5"/>
<text text-anchor="middle" x="239.5" y="-184.3" font-family="Times,serif" font-size="14.00">grad: 1.0</text>
</g>
<!-- op_4428393440 -->
<g id="node13" class="node">
<title>op_4428393440</title>
<ellipse fill="none" stroke="black" cx="346" cy="-167" rx="27" ry="18"/>
<text text-anchor="middle" x="346" y="-163.3" font-family="Times,serif" font-size="14.00">+</text>
</g>
<!-- 4427634528&#45;&gt;op_4428393440 -->
<g id="edge8" class="edge">
<title>4427634528&#45;&gt;op_4428393440</title>
<path fill="none" stroke="black" d="M282.7,-193.23C292.47,-189.12 302.73,-184.8 312.04,-180.88"/>
<polygon fill="black" stroke="black" points="313.19,-184.19 321.05,-177.08 310.48,-177.74 313.19,-184.19"/>
</g>
<!-- op_4427634528&#45;&gt;4427634528 -->
<g id="edge2" class="edge">
<title>op_4427634528&#45;&gt;4427634528</title>
<path fill="none" stroke="black" d="M160.37,-211C167.94,-211 176.47,-211 185.05,-211"/>
<polygon fill="black" stroke="black" points="184.76,-214.5 194.76,-211 184.76,-207.5 184.76,-214.5"/>
</g>
<!-- 4428405632 -->
<g id="node9" class="node">
<title>4428405632</title>
<polygon fill="none" stroke="black" points="1,-0.5 1,-69.5 69,-69.5 69,-0.5 1,-0.5"/>
<text text-anchor="middle" x="35" y="-54.3" font-family="Times,serif" font-size="14.00">label: w2</text>
<polyline fill="none" stroke="black" points="1,-46.5 69,-46.5"/>
<text text-anchor="middle" x="35" y="-31.3" font-family="Times,serif" font-size="14.00">data: &#45;1.0</text>
<polyline fill="none" stroke="black" points="1,-23.5 69,-23.5"/>
<text text-anchor="middle" x="35" y="-8.3" font-family="Times,serif" font-size="14.00">grad: 2.0</text>
</g>
<!-- 4428405632&#45;&gt;op_4428392912 -->
<g id="edge9" class="edge">
<title>4428405632&#45;&gt;op_4428392912</title>
<path fill="none" stroke="black" d="M68.77,-65.04C81.58,-76.78 96.01,-90.01 107.84,-100.86"/>
<polygon fill="black" stroke="black" points="105.47,-103.43 115.2,-107.6 110.2,-98.27 105.47,-103.43"/>
</g>
<!-- 4428392912 -->
<g id="node10" class="node">
<title>4428392912</title>
<polygon fill="none" stroke="black" points="196,-88.5 196,-157.5 283,-157.5 283,-88.5 196,-88.5"/>
<text text-anchor="middle" x="239.5" y="-142.3" font-family="Times,serif" font-size="14.00">label: x2*w2</text>
<polyline fill="none" stroke="black" points="196,-134.5 283,-134.5"/>
<text text-anchor="middle" x="239.5" y="-119.3" font-family="Times,serif" font-size="14.00">data: &#45;2.0</text>
<polyline fill="none" stroke="black" points="196,-111.5 283,-111.5"/>
<text text-anchor="middle" x="239.5" y="-96.3" font-family="Times,serif" font-size="14.00">grad: 1.0</text>
</g>
<!-- 4428392912&#45;&gt;op_4428393440 -->
<g id="edge11" class="edge">
<title>4428392912&#45;&gt;op_4428393440</title>
<path fill="none" stroke="black" d="M282.7,-140.77C292.47,-144.88 302.73,-149.2 312.04,-153.12"/>
<polygon fill="black" stroke="black" points="310.48,-156.26 321.05,-156.92 313.19,-149.81 310.48,-156.26"/>
</g>
<!-- op_4428392912&#45;&gt;4428392912 -->
<g id="edge3" class="edge">
<title>op_4428392912&#45;&gt;4428392912</title>
<path fill="none" stroke="black" d="M160.37,-123C167.94,-123 176.47,-123 185.05,-123"/>
<polygon fill="black" stroke="black" points="184.76,-126.5 194.76,-123 184.76,-119.5 184.76,-126.5"/>
</g>
<!-- 4428393440 -->
<g id="node12" class="node">
<title>4428393440</title>
<polygon fill="none" stroke="black" points="409,-132.5 409,-201.5 549,-201.5 549,-132.5 409,-132.5"/>
<text text-anchor="middle" x="479" y="-186.3" font-family="Times,serif" font-size="14.00">label: x1*w1 + x2*w2</text>
<polyline fill="none" stroke="black" points="409,-178.5 549,-178.5"/>
<text text-anchor="middle" x="479" y="-163.3" font-family="Times,serif" font-size="14.00">data: 1.0</text>
<polyline fill="none" stroke="black" points="409,-155.5 549,-155.5"/>
<text text-anchor="middle" x="479" y="-140.3" font-family="Times,serif" font-size="14.00">grad: 1.0</text>
</g>
<!-- 4428393440&#45;&gt;op_4428392048 -->
<g id="edge12" class="edge">
<title>4428393440&#45;&gt;op_4428392048</title>
<path fill="none" stroke="black" d="M548.95,-143.84C558.55,-140.62 568.05,-137.42 576.63,-134.54"/>
<polygon fill="black" stroke="black" points="577.5,-137.95 585.86,-131.44 575.27,-131.31 577.5,-137.95"/>
</g>
<!-- op_4428393440&#45;&gt;4428393440 -->
<g id="edge4" class="edge">
<title>op_4428393440&#45;&gt;4428393440</title>
<path fill="none" stroke="black" d="M373.19,-167C380.6,-167 389.06,-167 397.9,-167"/>
<polygon fill="black" stroke="black" points="397.73,-170.5 407.73,-167 397.73,-163.5 397.73,-170.5"/>
</g>
</g>
</svg>
