<?xml version="1.0" encoding="UTF-8" standalone="no"?>
<!DOCTYPE svg PUBLIC "-//W3C//DTD SVG 1.1//EN"
 "http://www.w3.org/Graphics/SVG/1.1/DTD/svg11.dtd">
<!-- Generated by graphviz version 7.1.0 (20230121.1956)
 -->
<!-- Pages: 1 -->
<svg width="661pt" height="254pt"
 viewBox="0.00 0.00 661.00 254.00" xmlns="http://www.w3.org/2000/svg" xmlns:xlink="http://www.w3.org/1999/xlink">
<g id="graph0" class="graph" transform="scale(1 1) rotate(0) translate(4 250)">
<polygon fill="white" stroke="none" points="-4,4 -4,-250 657,-250 657,4 -4,4"/>
<!-- 4428402800 -->
<g id="node1" class="node">
<title>4428402800</title>
<polygon fill="none" stroke="black" points="0,-176.5 0,-245.5 68,-245.5 68,-176.5 0,-176.5"/>
<text text-anchor="middle" x="34" y="-230.3" font-family="Times,serif" font-size="14.00">label: b</text>
<polyline fill="none" stroke="black" points="0,-222.5 68,-222.5"/>
<text text-anchor="middle" x="34" y="-207.3" font-family="Times,serif" font-size="14.00">data: &#45;3.0</text>
<polyline fill="none" stroke="black" points="0,-199.5 68,-199.5"/>
<text text-anchor="middle" x="34" y="-184.3" font-family="Times,serif" font-size="14.00">grad: 0.0</text>
</g>
<!-- op_4428405056 -->
<g id="node8" class="node">
<title>op_4428405056</title>
<ellipse fill="none" stroke="black" cx="131" cy="-167" rx="27" ry="18"/>
<text text-anchor="middle" x="131" y="-163.3" font-family="Times,serif" font-size="14.00">*</text>
</g>
<!-- 4428402800&#45;&gt;op_4428405056 -->
<g id="edge9" class="edge">
<title>4428402800&#45;&gt;op_4428405056</title>
<path fill="none" stroke="black" d="M67.96,-195.73C77.62,-191.26 88.16,-186.38 97.77,-181.93"/>
<polygon fill="black" stroke="black" points="99.15,-185.15 106.75,-177.77 96.21,-178.79 99.15,-185.15"/>
</g>
<!-- 4428405872 -->
<g id="node2" class="node">
<title>4428405872</title>
<polygon fill="none" stroke="black" points="391,-0.5 391,-69.5 459,-69.5 459,-0.5 391,-0.5"/>
<text text-anchor="middle" x="425" y="-54.3" font-family="Times,serif" font-size="14.00">label: f</text>
<polyline fill="none" stroke="black" points="391,-46.5 459,-46.5"/>
<text text-anchor="middle" x="425" y="-31.3" font-family="Times,serif" font-size="14.00">data: &#45;2.0</text>
<polyline fill="none" stroke="black" points="391,-23.5 459,-23.5"/>
<text text-anchor="middle" x="425" y="-8.3" font-family="Times,serif" font-size="14.00">grad: 0.0</text>
</g>
<!-- op_4428392336 -->
<g id="node10" class="node">
<title>op_4428392336</title>
<ellipse fill="none" stroke="black" cx="522" cy="-79" rx="27" ry="18"/>
<text text-anchor="middle" x="522" y="-75.3" font-family="Times,serif" font-size="14.00">*</text>
</g>
<!-- 4428405872&#45;&gt;op_4428392336 -->
<g id="edge5" class="edge">
<title>4428405872&#45;&gt;op_4428392336</title>
<path fill="none" stroke="black" d="M458.96,-50.27C468.62,-54.74 479.16,-59.62 488.77,-64.07"/>
<polygon fill="black" stroke="black" points="487.21,-67.21 497.75,-68.23 490.15,-60.85 487.21,-67.21"/>
</g>
<!-- 4428406448 -->
<g id="node3" class="node">
<title>4428406448</title>
<polygon fill="none" stroke="black" points="392.5,-88.5 392.5,-157.5 457.5,-157.5 457.5,-88.5 392.5,-88.5"/>
<text text-anchor="middle" x="425" y="-142.3" font-family="Times,serif" font-size="14.00">label: d</text>
<polyline fill="none" stroke="black" points="392.5,-134.5 457.5,-134.5"/>
<text text-anchor="middle" x="425" y="-119.3" font-family="Times,serif" font-size="14.00">data: 4.0</text>
<polyline fill="none" stroke="black" points="392.5,-111.5 457.5,-111.5"/>
<text text-anchor="middle" x="425" y="-96.3" font-family="Times,serif" font-size="14.00">grad: 0.0</text>
</g>
<!-- 4428406448&#45;&gt;op_4428392336 -->
<g id="edge7" class="edge">
<title>4428406448&#45;&gt;op_4428392336</title>
<path fill="none" stroke="black" d="M457.37,-108.47C467.56,-103.75 478.87,-98.51 489.1,-93.78"/>
<polygon fill="black" stroke="black" points="490.29,-97.08 497.9,-89.7 487.35,-90.73 490.29,-97.08"/>
</g>
<!-- op_4428406448 -->
<g id="node4" class="node">
<title>op_4428406448</title>
<ellipse fill="none" stroke="black" cx="328" cy="-123" rx="27" ry="18"/>
<text text-anchor="middle" x="328" y="-119.3" font-family="Times,serif" font-size="14.00">+</text>
</g>
<!-- op_4428406448&#45;&gt;4428406448 -->
<g id="edge1" class="edge">
<title>op_4428406448&#45;&gt;4428406448</title>
<path fill="none" stroke="black" d="M355.46,-123C363.48,-123 372.5,-123 381.29,-123"/>
<polygon fill="black" stroke="black" points="381.11,-126.5 391.11,-123 381.11,-119.5 381.11,-126.5"/>
</g>
<!-- 4428402896 -->
<g id="node5" class="node">
<title>4428402896</title>
<polygon fill="none" stroke="black" points="1.5,-88.5 1.5,-157.5 66.5,-157.5 66.5,-88.5 1.5,-88.5"/>
<text text-anchor="middle" x="34" y="-142.3" font-family="Times,serif" font-size="14.00">label: a</text>
<polyline fill="none" stroke="black" points="1.5,-134.5 66.5,-134.5"/>
<text text-anchor="middle" x="34" y="-119.3" font-family="Times,serif" font-size="14.00">data: 2.0</text>
<polyline fill="none" stroke="black" points="1.5,-111.5 66.5,-111.5"/>
<text text-anchor="middle" x="34" y="-96.3" font-family="Times,serif" font-size="14.00">grad: 0.0</text>
</g>
<!-- 4428402896&#45;&gt;op_4428405056 -->
<g id="edge6" class="edge">
<title>4428402896&#45;&gt;op_4428405056</title>
<path fill="none" stroke="black" d="M66.37,-137.53C76.56,-142.25 87.87,-147.49 98.1,-152.22"/>
<polygon fill="black" stroke="black" points="96.35,-155.27 106.9,-156.3 99.29,-148.92 96.35,-155.27"/>
</g>
<!-- 4428402944 -->
<g id="node6" class="node">
<title>4428402944</title>
<polygon fill="none" stroke="black" points="194,-44.5 194,-113.5 265,-113.5 265,-44.5 194,-44.5"/>
<text text-anchor="middle" x="229.5" y="-98.3" font-family="Times,serif" font-size="14.00">label: c</text>
<polyline fill="none" stroke="black" points="194,-90.5 265,-90.5"/>
<text text-anchor="middle" x="229.5" y="-75.3" font-family="Times,serif" font-size="14.00">data: 10.0</text>
<polyline fill="none" stroke="black" points="194,-67.5 265,-67.5"/>
<text text-anchor="middle" x="229.5" y="-52.3" font-family="Times,serif" font-size="14.00">grad: 0.0</text>
</g>
<!-- 4428402944&#45;&gt;op_4428406448 -->
<g id="edge8" class="edge">
<title>4428402944&#45;&gt;op_4428406448</title>
<path fill="none" stroke="black" d="M264.79,-94.64C274.56,-99.09 285.15,-103.92 294.78,-108.31"/>
<polygon fill="black" stroke="black" points="293.23,-111.45 303.78,-112.41 296.13,-105.08 293.23,-111.45"/>
</g>
<!-- 4428405056 -->
<g id="node7" class="node">
<title>4428405056</title>
<polygon fill="none" stroke="black" points="195.5,-132.5 195.5,-201.5 263.5,-201.5 263.5,-132.5 195.5,-132.5"/>
<text text-anchor="middle" x="229.5" y="-186.3" font-family="Times,serif" font-size="14.00">label: e</text>
<polyline fill="none" stroke="black" points="195.5,-178.5 263.5,-178.5"/>
<text text-anchor="middle" x="229.5" y="-163.3" font-family="Times,serif" font-size="14.00">data: &#45;6.0</text>
<polyline fill="none" stroke="black" points="195.5,-155.5 263.5,-155.5"/>
<text text-anchor="middle" x="229.5" y="-140.3" font-family="Times,serif" font-size="14.00">grad: 0.0</text>
</g>
<!-- 4428405056&#45;&gt;op_4428406448 -->
<g id="edge4" class="edge">
<title>4428405056&#45;&gt;op_4428406448</title>
<path fill="none" stroke="black" d="M263.44,-151.98C273.54,-147.37 284.65,-142.31 294.71,-137.72"/>
<polygon fill="black" stroke="black" points="296.1,-140.94 303.74,-133.6 293.19,-134.57 296.1,-140.94"/>
</g>
<!-- op_4428405056&#45;&gt;4428405056 -->
<g id="edge2" class="edge">
<title>op_4428405056&#45;&gt;4428405056</title>
<path fill="none" stroke="black" d="M158.37,-167C166.36,-167 175.37,-167 184.2,-167"/>
<polygon fill="black" stroke="black" points="184.1,-170.5 194.1,-167 184.1,-163.5 184.1,-170.5"/>
</g>
<!-- 4428392336 -->
<g id="node9" class="node">
<title>4428392336</title>
<polygon fill="none" stroke="black" points="585,-44.5 585,-113.5 653,-113.5 653,-44.5 585,-44.5"/>
<text text-anchor="middle" x="619" y="-98.3" font-family="Times,serif" font-size="14.00">label: L</text>
<polyline fill="none" stroke="black" points="585,-90.5 653,-90.5"/>
<text text-anchor="middle" x="619" y="-75.3" font-family="Times,serif" font-size="14.00">data: &#45;8.0</text>
<polyline fill="none" stroke="black" points="585,-67.5 653,-67.5"/>
<text text-anchor="middle" x="619" y="-52.3" font-family="Times,serif" font-size="14.00">grad: 0.0</text>
</g>
<!-- op_4428392336&#45;&gt;4428392336 -->
<g id="edge3" class="edge">
<title>op_4428392336&#45;&gt;4428392336</title>
<path fill="none" stroke="black" d="M549.46,-79C557.09,-79 565.62,-79 574,-79"/>
<polygon fill="black" stroke="black" points="573.73,-82.5 583.73,-79 573.73,-75.5 573.73,-82.5"/>
</g>
</g>
</svg>
