<?xml version="1.0" encoding="UTF-8" standalone="no"?>
<!DOCTYPE svg PUBLIC "-//W3C//DTD SVG 1.1//EN"
 "http://www.w3.org/Graphics/SVG/1.1/DTD/svg11.dtd">
<!-- Generated by graphviz version 7.1.0 (20230121.1956)
 -->
<!-- Pages: 1 -->
<svg width="203pt" height="428pt"
 viewBox="0.00 0.00 203.00 427.96" xmlns="http://www.w3.org/2000/svg" xmlns:xlink="http://www.w3.org/1999/xlink">
<g id="graph0" class="graph" transform="scale(1 1) rotate(0) translate(4 423.96)">
<polygon fill="white" stroke="none" points="-4,4 -4,-423.96 199,-423.96 199,4 -4,4"/>
<!-- 4442492208 -->
<g id="node1" class="node">
<title>4442492208</title>
<polygon fill="none" stroke="black" points="0,-83.96 0,-119.96 54,-119.96 54,-83.96 0,-83.96"/>
<text text-anchor="middle" x="27" y="-98.26" font-family="Times,serif" font-size="14.00">bias</text>
</g>
<!-- 4442474816 -->
<g id="node2" class="node">
<title>4442474816</title>
<polygon fill="none" stroke="black" points="127,-152.96 127,-198.96 195,-198.96 195,-152.96 127,-152.96"/>
<text text-anchor="middle" x="161" y="-183.76" font-family="Times,serif" font-size="14.00">layer:</text>
<polyline fill="none" stroke="black" points="127,-175.96 195,-175.96"/>
<text text-anchor="middle" x="161" y="-160.76" font-family="Times,serif" font-size="14.00">neuron: 0</text>
</g>
<!-- 4442492208&#45;&gt;4442474816 -->
<g id="edge1" class="edge">
<title>4442492208&#45;&gt;4442474816</title>
<path fill="none" stroke="#d9ef8b" d="M53.71,-110.27C70.09,-116.08 91.46,-124.64 109,-134.96 114.64,-138.28 120.33,-142.19 125.76,-146.25"/>
<polygon fill="#d9ef8b" stroke="#d9ef8b" points="123.36,-148.82 133.4,-152.21 127.67,-143.3 123.36,-148.82"/>
<g id="a_edge1&#45;label"><a xlink:title="Value(data=5.40e&#45;01, grad=0.00e+00, label=b)">
<text text-anchor="middle" x="90.5" y="-138.76" font-family="Times,serif" font-size="14.00">b_0</text>
</a>
</g>
</g>
<!-- 4442473904 -->
<g id="node6" class="node">
<title>4442473904</title>
<polygon fill="none" stroke="black" points="127,-38.96 127,-84.96 195,-84.96 195,-38.96 127,-38.96"/>
<text text-anchor="middle" x="161" y="-69.76" font-family="Times,serif" font-size="14.00">layer:</text>
<polyline fill="none" stroke="black" points="127,-61.96 195,-61.96"/>
<text text-anchor="middle" x="161" y="-46.76" font-family="Times,serif" font-size="14.00">neuron: 1</text>
</g>
<!-- 4442492208&#45;&gt;4442473904 -->
<g id="edge5" class="edge">
<title>4442492208&#45;&gt;4442473904</title>
<path fill="none" stroke="#66bd63" d="M30.39,-84.03C34.47,-61.35 45.15,-23.19 72,-5.96 85.84,2.92 93.96,0.68 109,-5.96 120.79,-11.17 131.02,-20.6 139.17,-30.25"/>
<polygon fill="#66bd63" stroke="#66bd63" points="136.2,-32.14 145.12,-37.87 141.72,-27.83 136.2,-32.14"/>
<g id="a_edge5&#45;label"><a xlink:title="Value(data=9.14e&#45;01, grad=0.00e+00, label=b)">
<text text-anchor="middle" x="90.5" y="-9.76" font-family="Times,serif" font-size="14.00">b_1</text>
</a>
</g>
</g>
<!-- 4442472608 -->
<g id="node7" class="node">
<title>4442472608</title>
<polygon fill="none" stroke="black" points="127,-304.96 127,-350.96 195,-350.96 195,-304.96 127,-304.96"/>
<text text-anchor="middle" x="161" y="-335.76" font-family="Times,serif" font-size="14.00">layer:</text>
<polyline fill="none" stroke="black" points="127,-327.96 195,-327.96"/>
<text text-anchor="middle" x="161" y="-312.76" font-family="Times,serif" font-size="14.00">neuron: 2</text>
</g>
<!-- 4442492208&#45;&gt;4442472608 -->
<g id="edge9" class="edge">
<title>4442492208&#45;&gt;4442472608</title>
<path fill="none" stroke="#66bd63" d="M47.35,-119.76C49.92,-122.93 52.27,-126.38 54,-129.96 77.23,-178.15 40.78,-205.53 72,-248.96 82.79,-263.97 94.51,-256.48 109,-267.96 119.25,-276.09 128.97,-286.53 137.11,-296.41"/>
<polygon fill="#66bd63" stroke="#66bd63" points="134.23,-298.4 143.18,-304.06 139.71,-294.05 134.23,-298.4"/>
<g id="a_edge9&#45;label"><a xlink:title="Value(data=8.45e&#45;01, grad=0.00e+00, label=b)">
<text text-anchor="middle" x="90.5" y="-271.76" font-family="Times,serif" font-size="14.00">b_2</text>
</a>
</g>
</g>
<!-- x_0 -->
<g id="node3" class="node">
<title>x_0</title>
<ellipse fill="none" stroke="black" cx="27" cy="-384.96" rx="27" ry="18"/>
<text text-anchor="middle" x="27" y="-381.26" font-family="Times,serif" font-size="14.00">x_0</text>
</g>
<!-- x_0&#45;&gt;4442474816 -->
<g id="edge2" class="edge">
<title>x_0&#45;&gt;4442474816</title>
<path fill="none" stroke="#fee08b" d="M53.66,-381.29C71.54,-377.42 94.65,-369.61 109,-353.96 111.5,-351.24 136.77,-260.4 150.78,-209.57"/>
<polygon fill="#fee08b" stroke="#fee08b" points="154.07,-210.81 153.35,-200.24 147.32,-208.95 154.07,-210.81"/>
<g id="a_edge2&#45;label"><a xlink:title="Value(data=1.07e&#45;01, grad=0.00e+00, label=w0)">
<text text-anchor="middle" x="90.5" y="-378.76" font-family="Times,serif" font-size="14.00">w_0_0</text>
</a>
</g>
</g>
<!-- x_0&#45;&gt;4442473904 -->
<g id="edge6" class="edge">
<title>x_0&#45;&gt;4442473904</title>
<path fill="none" stroke="#f46d43" d="M28.61,-366.57C30.56,-335.16 38.67,-270.64 72,-229.96 83.72,-215.66 97.38,-225.34 109,-210.96 128.37,-186.98 117.23,-173.21 127,-143.96 132.48,-127.57 139.53,-109.72 145.7,-94.88"/>
<polygon fill="#f46d43" stroke="#f46d43" points="148.76,-96.63 149.42,-86.06 142.31,-93.91 148.76,-96.63"/>
<g id="a_edge6&#45;label"><a xlink:title="Value(data=&#45;3.25e&#45;01, grad=0.00e+00, label=w0)">
<text text-anchor="middle" x="90.5" y="-233.76" font-family="Times,serif" font-size="14.00">w_0_1</text>
</a>
</g>
</g>
<!-- x_0&#45;&gt;4442472608 -->
<g id="edge10" class="edge">
<title>x_0&#45;&gt;4442472608</title>
<path fill="none" stroke="#fdae61" d="M48.7,-396.19C65.73,-403.79 90.06,-410.83 109,-400.96 125.37,-392.43 137.57,-375.97 145.92,-360.83"/>
<polygon fill="#fdae61" stroke="#fdae61" points="148.99,-362.53 150.41,-352.03 142.75,-359.35 148.99,-362.53"/>
<g id="a_edge10&#45;label"><a xlink:title="Value(data=&#45;1.17e&#45;01, grad=0.00e+00, label=w0)">
<text text-anchor="middle" x="90.5" y="-408.76" font-family="Times,serif" font-size="14.00">w_0_2</text>
</a>
</g>
</g>
<!-- x_1 -->
<g id="node4" class="node">
<title>x_1</title>
<ellipse fill="none" stroke="black" cx="27" cy="-210.96" rx="27" ry="18"/>
<text text-anchor="middle" x="27" y="-207.26" font-family="Times,serif" font-size="14.00">x_1</text>
</g>
<!-- x_1&#45;&gt;4442474816 -->
<g id="edge3" class="edge">
<title>x_1&#45;&gt;4442474816</title>
<path fill="none" stroke="#fee08b" d="M51.15,-202.56C57.83,-200.28 65.17,-197.9 72,-195.96 86.27,-191.92 102.03,-188.13 116.21,-184.96"/>
<polygon fill="#fee08b" stroke="#fee08b" points="116.7,-188.44 125.72,-182.88 115.2,-181.6 116.7,-188.44"/>
<g id="a_edge3&#45;label"><a xlink:title="Value(data=8.27e&#45;02, grad=0.00e+00, label=w1)">
<text text-anchor="middle" x="90.5" y="-199.76" font-family="Times,serif" font-size="14.00">w_1_0</text>
</a>
</g>
</g>
<!-- x_1&#45;&gt;4442473904 -->
<g id="edge7" class="edge">
<title>x_1&#45;&gt;4442473904</title>
<path fill="none" stroke="#f46d43" d="M44.52,-196.75C48.11,-192.93 51.57,-188.56 54,-183.96 72.25,-149.44 47.01,-127.97 72,-97.96 83.16,-84.56 100.09,-76.09 116.13,-70.77"/>
<polygon fill="#f46d43" stroke="#f46d43" points="116.96,-74.17 125.56,-67.98 114.98,-67.46 116.96,-74.17"/>
<g id="a_edge7&#45;label"><a xlink:title="Value(data=&#45;2.01e&#45;01, grad=0.00e+00, label=w1)">
<text text-anchor="middle" x="90.5" y="-101.76" font-family="Times,serif" font-size="14.00">w_1_1</text>
</a>
</g>
</g>
<!-- x_1&#45;&gt;4442472608 -->
<g id="edge11" class="edge">
<title>x_1&#45;&gt;4442472608</title>
<path fill="none" stroke="#fee08b" d="M29.1,-229.29C31.77,-255.46 40.88,-302.83 72,-324.96 84.51,-333.86 100.74,-336.24 115.85,-335.84"/>
<polygon fill="#fee08b" stroke="#fee08b" points="115.87,-339.35 125.6,-335.17 115.38,-332.37 115.87,-339.35"/>
<g id="a_edge11&#45;label"><a xlink:title="Value(data=3.54e&#45;01, grad=0.00e+00, label=w1)">
<text text-anchor="middle" x="90.5" y="-338.76" font-family="Times,serif" font-size="14.00">w_1_2</text>
</a>
</g>
</g>
<!-- x_2 -->
<g id="node5" class="node">
<title>x_2</title>
<ellipse fill="none" stroke="black" cx="27" cy="-156.96" rx="27" ry="18"/>
<text text-anchor="middle" x="27" y="-153.26" font-family="Times,serif" font-size="14.00">x_2</text>
</g>
<!-- x_2&#45;&gt;4442474816 -->
<g id="edge4" class="edge">
<title>x_2&#45;&gt;4442474816</title>
<path fill="none" stroke="#a50026" d="M54.1,-155.14C70.08,-154.55 90.86,-154.74 109,-157.96 111.44,-158.4 113.92,-158.93 116.41,-159.54"/>
<polygon fill="#a50026" stroke="#a50026" points="115.2,-162.84 125.77,-162.22 117.12,-156.11 115.2,-162.84"/>
<g id="a_edge4&#45;label"><a xlink:title="Value(data=&#45;7.70e&#45;01, grad=0.00e+00, label=w2)">
<text text-anchor="middle" x="90.5" y="-161.76" font-family="Times,serif" font-size="14.00">w_2_0</text>
</a>
</g>
</g>
<!-- x_2&#45;&gt;4442473904 -->
<g id="edge8" class="edge">
<title>x_2&#45;&gt;4442473904</title>
<path fill="none" stroke="#66bd63" d="M44.52,-142.75C48.11,-138.93 51.57,-134.56 54,-129.96 72.25,-95.44 41.69,-68.58 72,-43.96 84.49,-33.82 101.21,-34.77 116.72,-39.53"/>
<polygon fill="#66bd63" stroke="#66bd63" points="115.18,-42.7 125.77,-42.83 117.57,-36.12 115.18,-42.7"/>
<g id="a_edge8&#45;label"><a xlink:title="Value(data=9.79e&#45;01, grad=0.00e+00, label=w2)">
<text text-anchor="middle" x="90.5" y="-47.76" font-family="Times,serif" font-size="14.00">w_2_1</text>
</a>
</g>
</g>
<!-- x_2&#45;&gt;4442472608 -->
<g id="edge12" class="edge">
<title>x_2&#45;&gt;4442472608</title>
<path fill="none" stroke="#a6d96a" d="M44.63,-171.12C48.22,-174.94 51.64,-179.32 54,-183.96 75.04,-225.4 43.73,-250.08 72,-286.96 73.63,-289.09 95.36,-299.22 116.82,-308.88"/>
<polygon fill="#a6d96a" stroke="#a6d96a" points="115.3,-312.04 125.86,-312.93 118.16,-305.65 115.3,-312.04"/>
<g id="a_edge12&#45;label"><a xlink:title="Value(data=7.31e&#45;01, grad=0.00e+00, label=w2)">
<text text-anchor="middle" x="90.5" y="-307.76" font-family="Times,serif" font-size="14.00">w_2_2</text>
</a>
</g>
</g>
</g>
</svg>
