<?xml version="1.0" encoding="UTF-8" standalone="no"?>
<!DOCTYPE svg PUBLIC "-//W3C//DTD SVG 1.1//EN"
 "http://www.w3.org/Graphics/SVG/1.1/DTD/svg11.dtd">
<!-- Generated by graphviz version 7.1.0 (20230121.1956)
 -->
<!-- Pages: 1 -->
<svg width="485pt" height="661pt"
 viewBox="0.00 0.00 485.00 661.38" xmlns="http://www.w3.org/2000/svg" xmlns:xlink="http://www.w3.org/1999/xlink">
<g id="graph0" class="graph" transform="scale(1 1) rotate(0) translate(4 657.38)">
<polygon fill="white" stroke="none" points="-4,4 -4,-657.38 481,-657.38 481,4 -4,4"/>
<!-- 4685351344 -->
<g id="node1" class="node">
<title>4685351344</title>
<polygon fill="none" stroke="black" points="0,-324.38 0,-360.38 54,-360.38 54,-324.38 0,-324.38"/>
<text text-anchor="middle" x="27" y="-338.68" font-family="Times,serif" font-size="14.00">bias</text>
</g>
<!-- 5207500016 -->
<g id="node2" class="node">
<title>5207500016</title>
<polygon fill="none" stroke="black" points="127,-391.38 127,-437.38 195,-437.38 195,-391.38 127,-391.38"/>
<text text-anchor="middle" x="161" y="-422.18" font-family="Times,serif" font-size="14.00">layer: 1</text>
<polyline fill="none" stroke="black" points="127,-414.38 195,-414.38"/>
<text text-anchor="middle" x="161" y="-399.18" font-family="Times,serif" font-size="14.00">neuron: 0</text>
</g>
<!-- 4685351344&#45;&gt;5207500016 -->
<g id="edge1" class="edge">
<title>4685351344&#45;&gt;5207500016</title>
<path fill="none" stroke="#66bd63" d="M53.71,-360.12C59.63,-363.98 65.96,-367.94 72,-371.38 86.38,-379.59 102.55,-387.77 117.07,-394.77"/>
<polygon fill="#66bd63" stroke="#66bd63" points="115.4,-397.85 125.94,-398.98 118.41,-391.52 115.4,-397.85"/>
<g id="a_edge1&#45;label"><a xlink:title="Value(data=2.64e+00, grad=&#45;2.01e&#45;01, label=b)">
<text text-anchor="middle" x="90.5" y="-394.18" font-family="Times,serif" font-size="14.00">b_0</text>
</a>
</g>
</g>
<!-- 5207502080 -->
<g id="node4" class="node">
<title>5207502080</title>
<polygon fill="none" stroke="black" points="127,-274.38 127,-320.38 195,-320.38 195,-274.38 127,-274.38"/>
<text text-anchor="middle" x="161" y="-305.18" font-family="Times,serif" font-size="14.00">layer: 1</text>
<polyline fill="none" stroke="black" points="127,-297.38 195,-297.38"/>
<text text-anchor="middle" x="161" y="-282.18" font-family="Times,serif" font-size="14.00">neuron: 1</text>
</g>
<!-- 4685351344&#45;&gt;5207502080 -->
<g id="edge3" class="edge">
<title>4685351344&#45;&gt;5207502080</title>
<path fill="none" stroke="#66bd63" d="M53.76,-333.6C71.57,-327.53 95.7,-319.3 116.46,-312.23"/>
<polygon fill="#66bd63" stroke="#66bd63" points="117.5,-315.57 125.84,-309.03 115.24,-308.94 117.5,-315.57"/>
<g id="a_edge3&#45;label"><a xlink:title="Value(data=2.87e+00, grad=&#45;2.27e&#45;01, label=b)">
<text text-anchor="middle" x="90.5" y="-331.18" font-family="Times,serif" font-size="14.00">b_1</text>
</a>
</g>
</g>
<!-- 5207502368 -->
<g id="node5" class="node">
<title>5207502368</title>
<polygon fill="none" stroke="black" points="127,-199.38 127,-245.38 195,-245.38 195,-199.38 127,-199.38"/>
<text text-anchor="middle" x="161" y="-230.18" font-family="Times,serif" font-size="14.00">layer: 1</text>
<polyline fill="none" stroke="black" points="127,-222.38 195,-222.38"/>
<text text-anchor="middle" x="161" y="-207.18" font-family="Times,serif" font-size="14.00">neuron: 2</text>
</g>
<!-- 4685351344&#45;&gt;5207502368 -->
<g id="edge5" class="edge">
<title>4685351344&#45;&gt;5207502368</title>
<path fill="none" stroke="#fdae61" d="M44.68,-324.39C52.72,-315.96 62.63,-305.92 72,-297.38 87.65,-283.12 92.84,-281.06 109,-267.38 114.5,-262.73 120.28,-257.73 125.89,-252.83"/>
<polygon fill="#fdae61" stroke="#fdae61" points="128.17,-255.49 133.36,-246.25 123.54,-250.23 128.17,-255.49"/>
<g id="a_edge5&#45;label"><a xlink:title="Value(data=&#45;3.49e&#45;02, grad=4.01e&#45;03, label=b)">
<text text-anchor="middle" x="90.5" y="-301.18" font-family="Times,serif" font-size="14.00">b_2</text>
</a>
</g>
</g>
<!-- 5207501120 -->
<g id="node6" class="node">
<title>5207501120</title>
<polygon fill="none" stroke="black" points="127,-81.38 127,-127.38 195,-127.38 195,-81.38 127,-81.38"/>
<text text-anchor="middle" x="161" y="-112.18" font-family="Times,serif" font-size="14.00">layer: 1</text>
<polyline fill="none" stroke="black" points="127,-104.38 195,-104.38"/>
<text text-anchor="middle" x="161" y="-89.18" font-family="Times,serif" font-size="14.00">neuron: 3</text>
</g>
<!-- 4685351344&#45;&gt;5207501120 -->
<g id="edge7" class="edge">
<title>4685351344&#45;&gt;5207501120</title>
<path fill="none" stroke="#a50026" d="M30.29,-324.43C34.47,-297.86 45.49,-247.64 72,-214.38 84.07,-199.24 95.49,-205.25 109,-191.38 124.18,-175.81 136.63,-154.86 145.44,-137.43"/>
<polygon fill="#a50026" stroke="#a50026" points="148.57,-138.99 149.78,-128.47 142.27,-135.94 148.57,-138.99"/>
<g id="a_edge7&#45;label"><a xlink:title="Value(data=&#45;7.81e&#45;01, grad=8.13e&#45;02, label=b)">
<text text-anchor="middle" x="90.5" y="-218.18" font-family="Times,serif" font-size="14.00">b_3</text>
</a>
</g>
</g>
<!-- 5207500976 -->
<g id="node7" class="node">
<title>5207500976</title>
<polygon fill="none" stroke="black" points="268,-512.38 268,-558.38 336,-558.38 336,-512.38 268,-512.38"/>
<text text-anchor="middle" x="302" y="-543.18" font-family="Times,serif" font-size="14.00">layer: 2</text>
<polyline fill="none" stroke="black" points="268,-535.38 336,-535.38"/>
<text text-anchor="middle" x="302" y="-520.18" font-family="Times,serif" font-size="14.00">neuron: 0</text>
</g>
<!-- 4685351344&#45;&gt;5207500976 -->
<g id="edge9" class="edge">
<title>4685351344&#45;&gt;5207500976</title>
<path fill="none" stroke="#d73027" d="M31.46,-360.11C43.74,-417.15 91.14,-595.28 213,-647.38 228.12,-653.85 236.17,-656.28 250,-647.38 276.61,-630.26 289.5,-595.47 295.64,-569.18"/>
<polygon fill="#d73027" stroke="#d73027" points="299.01,-570.14 297.63,-559.64 292.16,-568.71 299.01,-570.14"/>
<g id="a_edge9&#45;label"><a xlink:title="Value(data=&#45;5.92e&#45;01, grad=1.35e&#45;02, label=b)">
<text text-anchor="middle" x="161" y="-642.18" font-family="Times,serif" font-size="14.00">b_0</text>
</a>
</g>
</g>
<!-- 5207501888 -->
<g id="node8" class="node">
<title>5207501888</title>
<polygon fill="none" stroke="black" points="268,-114.38 268,-160.38 336,-160.38 336,-114.38 268,-114.38"/>
<text text-anchor="middle" x="302" y="-145.18" font-family="Times,serif" font-size="14.00">layer: 2</text>
<polyline fill="none" stroke="black" points="268,-137.38 336,-137.38"/>
<text text-anchor="middle" x="302" y="-122.18" font-family="Times,serif" font-size="14.00">neuron: 1</text>
</g>
<!-- 4685351344&#45;&gt;5207501888 -->
<g id="edge14" class="edge">
<title>4685351344&#45;&gt;5207501888</title>
<path fill="none" stroke="#f46d43" d="M30.64,-324.59C37.43,-280.02 56.05,-164.65 72,-129.38 88.74,-92.37 95.66,-82.23 127,-56.38 171.56,-19.63 205.33,22.24 250,-14.38 281.55,-40.24 248.75,-68.42 268,-104.38 268.18,-104.72 268.36,-105.05 268.55,-105.38"/>
<polygon fill="#f46d43" stroke="#f46d43" points="265.53,-107.17 274.13,-113.36 271.27,-103.16 265.53,-107.17"/>
<g id="a_edge14&#45;label"><a xlink:title="Value(data=&#45;2.99e&#45;01, grad=&#45;1.18e&#45;02, label=b)">
<text text-anchor="middle" x="161" y="-60.18" font-family="Times,serif" font-size="14.00">b_1</text>
</a>
</g>
</g>
<!-- 5207499920 -->
<g id="node9" class="node">
<title>5207499920</title>
<polygon fill="none" stroke="black" points="268,-408.38 268,-454.38 336,-454.38 336,-408.38 268,-408.38"/>
<text text-anchor="middle" x="302" y="-439.18" font-family="Times,serif" font-size="14.00">layer: 2</text>
<polyline fill="none" stroke="black" points="268,-431.38 336,-431.38"/>
<text text-anchor="middle" x="302" y="-416.18" font-family="Times,serif" font-size="14.00">neuron: 2</text>
</g>
<!-- 4685351344&#45;&gt;5207499920 -->
<g id="edge19" class="edge">
<title>4685351344&#45;&gt;5207499920</title>
<path fill="none" stroke="#d9ef8b" d="M36.94,-360.3C59.43,-403 123.07,-509.89 213,-546.38 228.24,-552.57 236.35,-555.55 250,-546.38 267.54,-534.61 259.54,-521.75 268,-502.38 273.41,-489.98 279.61,-476.49 285.15,-464.63"/>
<polygon fill="#d9ef8b" stroke="#d9ef8b" points="288.29,-466.19 289.38,-455.65 281.96,-463.21 288.29,-466.19"/>
<g id="a_edge19&#45;label"><a xlink:title="Value(data=4.82e&#45;01, grad=&#45;7.55e&#45;02, label=b)">
<text text-anchor="middle" x="161" y="-542.18" font-family="Times,serif" font-size="14.00">b_2</text>
</a>
</g>
</g>
<!-- 4679691904 -->
<g id="node10" class="node">
<title>4679691904</title>
<polygon fill="none" stroke="black" points="268,-304.38 268,-350.38 336,-350.38 336,-304.38 268,-304.38"/>
<text text-anchor="middle" x="302" y="-335.18" font-family="Times,serif" font-size="14.00">layer: 2</text>
<polyline fill="none" stroke="black" points="268,-327.38 336,-327.38"/>
<text text-anchor="middle" x="302" y="-312.18" font-family="Times,serif" font-size="14.00">neuron: 3</text>
</g>
<!-- 4685351344&#45;&gt;4679691904 -->
<g id="edge24" class="edge">
<title>4685351344&#45;&gt;4679691904</title>
<path fill="none" stroke="#a50026" d="M53.59,-343.06C59.63,-343.2 66.04,-343.31 72,-343.38 151.19,-344.28 171.25,-343.77 250,-335.38 252.21,-335.15 254.46,-334.88 256.74,-334.6"/>
<polygon fill="#a50026" stroke="#a50026" points="257.21,-338.06 266.64,-333.23 256.26,-331.13 257.21,-338.06"/>
<g id="a_edge24&#45;label"><a xlink:title="Value(data=&#45;6.35e&#45;01, grad=&#45;5.27e&#45;03, label=b)">
<text text-anchor="middle" x="161" y="-348.18" font-family="Times,serif" font-size="14.00">b_3</text>
</a>
</g>
</g>
<!-- 5207500016&#45;&gt;5207500976 -->
<g id="edge10" class="edge">
<title>5207500016&#45;&gt;5207500976</title>
<path fill="none" stroke="#fee08b" d="M167.53,-437.23C180.55,-490.92 212.08,-620.66 213,-621.38 225.94,-631.52 235.71,-629.52 250,-621.38 269.67,-610.18 282.53,-588.07 290.42,-569.08"/>
<polygon fill="#fee08b" stroke="#fee08b" points="293.68,-570.37 293.97,-559.78 287.14,-567.88 293.68,-570.37"/>
<g id="a_edge10&#45;label"><a xlink:title="Value(data=7.81e&#45;03, grad=&#45;1.06e&#45;02, label=w0)">
<text text-anchor="middle" x="231.5" y="-632.18" font-family="Times,serif" font-size="14.00">w_0_0</text>
</a>
</g>
</g>
<!-- 5207500016&#45;&gt;5207501888 -->
<g id="edge15" class="edge">
<title>5207500016&#45;&gt;5207501888</title>
<path fill="none" stroke="#a50026" d="M185.79,-391.41C189.43,-386.77 192.73,-381.68 195,-376.38 228.09,-299.24 167.67,-259.03 213,-188.38 223.5,-172.01 241.26,-160.29 258.08,-152.24"/>
<polygon fill="#a50026" stroke="#a50026" points="259.24,-155.56 266.98,-148.31 256.41,-149.15 259.24,-155.56"/>
<g id="a_edge15&#45;label"><a xlink:title="Value(data=&#45;7.37e&#45;01, grad=&#45;1.84e&#45;01, label=w0)">
<text text-anchor="middle" x="231.5" y="-192.18" font-family="Times,serif" font-size="14.00">w_0_1</text>
</a>
</g>
</g>
<!-- 5207500016&#45;&gt;5207499920 -->
<g id="edge20" class="edge">
<title>5207500016&#45;&gt;5207499920</title>
<path fill="none" stroke="#66bd63" d="M165.74,-437.33C171.22,-462.65 184.13,-502.23 213,-520.38 226.92,-529.13 235.77,-528.63 250,-520.38 260.97,-514.02 275.52,-487.19 286.28,-464.63"/>
<polygon fill="#66bd63" stroke="#66bd63" points="289.38,-466.25 290.43,-455.7 283.04,-463.29 289.38,-466.25"/>
<g id="a_edge20&#45;label"><a xlink:title="Value(data=1.94e+00, grad=3.21e&#45;02, label=w0)">
<text text-anchor="middle" x="231.5" y="-531.18" font-family="Times,serif" font-size="14.00">w_0_2</text>
</a>
</g>
</g>
<!-- 5207500016&#45;&gt;4679691904 -->
<g id="edge25" class="edge">
<title>5207500016&#45;&gt;4679691904</title>
<path fill="none" stroke="#fee08b" d="M194.63,-399.23C211.59,-390.88 232.4,-379.9 250,-368.38 255.17,-365 260.44,-361.2 265.54,-357.32"/>
<polygon fill="#fee08b" stroke="#fee08b" points="267.58,-360.18 273.29,-351.25 263.26,-354.67 267.58,-360.18"/>
<g id="a_edge25&#45;label"><a xlink:title="Value(data=1.50e&#45;01, grad=5.58e&#45;03, label=w0)">
<text text-anchor="middle" x="231.5" y="-393.18" font-family="Times,serif" font-size="14.00">w_0_3</text>
</a>
</g>
</g>
<!-- x_0 -->
<g id="node3" class="node">
<title>x_0</title>
<ellipse fill="none" stroke="black" cx="27" cy="-156.38" rx="27" ry="18"/>
<text text-anchor="middle" x="27" y="-152.68" font-family="Times,serif" font-size="14.00">x_0</text>
</g>
<!-- x_0&#45;&gt;5207500016 -->
<g id="edge2" class="edge">
<title>x_0&#45;&gt;5207500016</title>
<path fill="none" stroke="#a50026" d="M35.17,-173.88C42.48,-189.96 55.13,-213.62 72,-229.38 85.51,-242 98.29,-233.32 109,-248.38 142.29,-295.2 103.19,-324.1 127,-376.38 127.92,-378.41 128.99,-380.41 130.16,-382.37"/>
<polygon fill="#a50026" stroke="#a50026" points="127.26,-384.33 135.86,-390.51 132.99,-380.31 127.26,-384.33"/>
<g id="a_edge2&#45;label"><a xlink:title="Value(data=&#45;9.52e&#45;01, grad=&#45;6.06e&#45;01, label=w0)">
<text text-anchor="middle" x="90.5" y="-252.18" font-family="Times,serif" font-size="14.00">w_0_0</text>
</a>
</g>
</g>
<!-- x_0&#45;&gt;5207502080 -->
<g id="edge4" class="edge">
<title>x_0&#45;&gt;5207502080</title>
<path fill="none" stroke="#66bd63" d="M54.44,-156.11C72.21,-157.37 94.87,-162.04 109,-176.38 133.96,-201.73 111.82,-222.2 127,-254.38 128.7,-257.98 130.73,-261.56 132.95,-265.04"/>
<polygon fill="#66bd63" stroke="#66bd63" points="130.08,-267.04 138.68,-273.22 135.81,-263.02 130.08,-267.04"/>
<g id="a_edge4&#45;label"><a xlink:title="Value(data=9.78e&#45;01, grad=6.80e&#45;01, label=w0)">
<text text-anchor="middle" x="90.5" y="-180.18" font-family="Times,serif" font-size="14.00">w_0_1</text>
</a>
</g>
</g>
<!-- x_0&#45;&gt;5207502368 -->
<g id="edge6" class="edge">
<title>x_0&#45;&gt;5207502368</title>
<path fill="none" stroke="#66bd63" d="M47.79,-144.57C64.94,-136 89.92,-127.64 109,-138.38 128.26,-149.22 141.09,-170.61 149.07,-189.09"/>
<polygon fill="#66bd63" stroke="#66bd63" points="145.71,-190.12 152.65,-198.12 152.22,-187.54 145.71,-190.12"/>
<g id="a_edge6&#45;label"><a xlink:title="Value(data=2.10e+00, grad=&#45;3.32e&#45;03, label=w0)">
<text text-anchor="middle" x="90.5" y="-142.18" font-family="Times,serif" font-size="14.00">w_0_2</text>
</a>
</g>
</g>
<!-- x_0&#45;&gt;5207501120 -->
<g id="edge8" class="edge">
<title>x_0&#45;&gt;5207501120</title>
<path fill="none" stroke="#d9ef8b" d="M36.1,-139.16C43.41,-125.85 55.54,-108.38 72,-100.38 85.35,-93.89 101.23,-92.9 115.79,-94.17"/>
<polygon fill="#d9ef8b" stroke="#d9ef8b" points="115.26,-97.63 125.62,-95.42 116.14,-90.68 115.26,-97.63"/>
<g id="a_edge8&#45;label"><a xlink:title="Value(data=4.39e&#45;01, grad=2.68e&#45;01, label=w0)">
<text text-anchor="middle" x="90.5" y="-104.18" font-family="Times,serif" font-size="14.00">w_0_3</text>
</a>
</g>
</g>
<!-- 5207502080&#45;&gt;5207500976 -->
<g id="edge11" class="edge">
<title>5207502080&#45;&gt;5207500976</title>
<path fill="none" stroke="#fee08b" d="M185.84,-320.33C189.47,-324.97 192.75,-330.07 195,-335.38 213.33,-378.72 178.34,-514.55 213,-546.38 224.89,-557.3 241.79,-557.43 257.61,-553.78"/>
<polygon fill="#fee08b" stroke="#fee08b" points="258.2,-557.25 266.86,-551.15 256.28,-550.52 258.2,-557.25"/>
<g id="a_edge11&#45;label"><a xlink:title="Value(data=1.06e&#45;01, grad=1.78e&#45;02, label=w1)">
<text text-anchor="middle" x="231.5" y="-560.18" font-family="Times,serif" font-size="14.00">w_1_0</text>
</a>
</g>
</g>
<!-- 5207502080&#45;&gt;5207501888 -->
<g id="edge16" class="edge">
<title>5207502080&#45;&gt;5207501888</title>
<path fill="none" stroke="#66bd63" d="M182.81,-274.62C187.49,-268.44 191.96,-261.48 195,-254.38 215.52,-206.41 173.57,-172.55 213,-138.38 224.89,-128.08 241.46,-125.9 257.02,-126.98"/>
<polygon fill="#66bd63" stroke="#66bd63" points="256.24,-130.42 266.58,-128.1 257.05,-123.46 256.24,-130.42"/>
<g id="a_edge16&#45;label"><a xlink:title="Value(data=1.84e+00, grad=1.59e&#45;01, label=w1)">
<text text-anchor="middle" x="231.5" y="-142.18" font-family="Times,serif" font-size="14.00">w_1_1</text>
</a>
</g>
</g>
<!-- 5207502080&#45;&gt;5207499920 -->
<g id="edge21" class="edge">
<title>5207502080&#45;&gt;5207499920</title>
<path fill="none" stroke="#66bd63" d="M185.35,-319.98C189.13,-324.73 192.59,-329.95 195,-335.38 208.37,-365.45 188.35,-460.57 213,-482.38 231.78,-499 256.79,-481.49 275.36,-462.61"/>
<polygon fill="#66bd63" stroke="#66bd63" points="277.86,-465.05 282.1,-455.35 272.73,-460.29 277.86,-465.05"/>
<g id="a_edge21&#45;label"><a xlink:title="Value(data=8.97e&#45;01, grad=&#45;7.66e&#45;02, label=w1)">
<text text-anchor="middle" x="231.5" y="-493.18" font-family="Times,serif" font-size="14.00">w_1_2</text>
</a>
</g>
</g>
<!-- 5207502080&#45;&gt;4679691904 -->
<g id="edge26" class="edge">
<title>5207502080&#45;&gt;4679691904</title>
<path fill="none" stroke="#d9ef8b" d="M194.94,-304.49C213.55,-308.51 237.05,-313.58 257.19,-317.93"/>
<polygon fill="#d9ef8b" stroke="#d9ef8b" points="256.3,-321.32 266.82,-320 257.78,-314.47 256.3,-321.32"/>
<g id="a_edge26&#45;label"><a xlink:title="Value(data=5.82e&#45;01, grad=&#45;6.83e&#45;03, label=w1)">
<text text-anchor="middle" x="231.5" y="-320.18" font-family="Times,serif" font-size="14.00">w_1_3</text>
</a>
</g>
</g>
<!-- 5207502368&#45;&gt;5207500976 -->
<g id="edge12" class="edge">
<title>5207502368&#45;&gt;5207500976</title>
<path fill="none" stroke="#fee08b" d="M183.76,-245.33C188.18,-251.15 192.3,-257.67 195,-264.38 210.02,-301.67 190.37,-411.16 213,-444.38 223.41,-459.66 236.03,-451.27 250,-463.38 262.85,-474.53 274.15,-489.55 282.82,-502.99"/>
<polygon fill="#fee08b" stroke="#fee08b" points="279.62,-504.47 287.86,-511.13 285.58,-500.79 279.62,-504.47"/>
<g id="a_edge12&#45;label"><a xlink:title="Value(data=3.78e&#45;02, grad=2.07e&#45;02, label=w2)">
<text text-anchor="middle" x="231.5" y="-467.18" font-family="Times,serif" font-size="14.00">w_2_0</text>
</a>
</g>
</g>
<!-- 5207502368&#45;&gt;5207501888 -->
<g id="edge17" class="edge">
<title>5207502368&#45;&gt;5207501888</title>
<path fill="none" stroke="#a50026" d="M170.79,-199.55C184.18,-165.05 208.61,-103.31 213,-100.38 229.64,-89.3 250.15,-96.88 267.17,-108"/>
<polygon fill="#a50026" stroke="#a50026" points="264.82,-110.62 275,-113.56 268.88,-104.91 264.82,-110.62"/>
<g id="a_edge17&#45;label"><a xlink:title="Value(data=&#45;2.06e+00, grad=2.59e&#45;01, label=w2)">
<text text-anchor="middle" x="231.5" y="-104.18" font-family="Times,serif" font-size="14.00">w_2_1</text>
</a>
</g>
</g>
<!-- 5207502368&#45;&gt;5207499920 -->
<g id="edge22" class="edge">
<title>5207502368&#45;&gt;5207499920</title>
<path fill="none" stroke="#fdae61" d="M186.2,-245.22C194.46,-252.6 203.9,-260.62 213,-267.38 228.54,-278.94 238.52,-274.79 250,-290.38 268.8,-315.9 257.36,-329.53 268,-359.38 272.64,-372.4 278.73,-386.3 284.41,-398.38"/>
<polygon fill="#fdae61" stroke="#fdae61" points="281.11,-399.6 288.59,-407.1 287.42,-396.57 281.11,-399.6"/>
<g id="a_edge22&#45;label"><a xlink:title="Value(data=&#45;1.86e&#45;01, grad=&#45;7.73e&#45;02, label=w2)">
<text text-anchor="middle" x="231.5" y="-294.18" font-family="Times,serif" font-size="14.00">w_2_2</text>
</a>
</g>
</g>
<!-- 5207502368&#45;&gt;4679691904 -->
<g id="edge27" class="edge">
<title>5207502368&#45;&gt;4679691904</title>
<path fill="none" stroke="#66bd63" d="M194.89,-210.07C212.53,-205.64 233.89,-203.98 250,-214.38 276.78,-231.67 289.64,-266.77 295.73,-293.29"/>
<polygon fill="#66bd63" stroke="#66bd63" points="292.27,-293.84 297.7,-302.93 299.12,-292.43 292.27,-293.84"/>
<g id="a_edge27&#45;label"><a xlink:title="Value(data=1.49e+00, grad=&#45;1.03e&#45;02, label=w2)">
<text text-anchor="middle" x="231.5" y="-218.18" font-family="Times,serif" font-size="14.00">w_2_3</text>
</a>
</g>
</g>
<!-- 5207501120&#45;&gt;5207500976 -->
<g id="edge13" class="edge">
<title>5207501120&#45;&gt;5207500976</title>
<path fill="none" stroke="#66bd63" d="M172.96,-127.26C180.48,-144.06 189.99,-167.63 195,-189.38 205.87,-236.53 186.1,-366.16 213,-406.38 223.28,-421.75 237.19,-412.05 250,-425.38 250.74,-426.15 271.01,-470.09 285.77,-502.19"/>
<polygon fill="#66bd63" stroke="#66bd63" points="282.54,-503.55 289.89,-511.17 288.9,-500.62 282.54,-503.55"/>
<g id="a_edge13&#45;label"><a xlink:title="Value(data=8.54e&#45;01, grad=1.30e&#45;02, label=w3)">
<text text-anchor="middle" x="231.5" y="-429.18" font-family="Times,serif" font-size="14.00">w_3_0</text>
</a>
</g>
</g>
<!-- 5207501120&#45;&gt;5207501888 -->
<g id="edge18" class="edge">
<title>5207501120&#45;&gt;5207501888</title>
<path fill="none" stroke="#d9ef8b" d="M169.54,-81.46C177.18,-62.37 191.05,-36.42 213,-24.38 227.42,-16.47 237.16,-14.11 250,-24.38 278.46,-47.15 250.42,-72.46 268,-104.38 268.18,-104.71 268.37,-105.05 268.56,-105.38"/>
<polygon fill="#d9ef8b" stroke="#d9ef8b" points="265.56,-107.2 274.2,-113.33 271.27,-103.15 265.56,-107.2"/>
<g id="a_edge18&#45;label"><a xlink:title="Value(data=5.25e&#45;01, grad=1.99e&#45;01, label=w3)">
<text text-anchor="middle" x="231.5" y="-28.18" font-family="Times,serif" font-size="14.00">w_3_1</text>
</a>
</g>
</g>
<!-- 5207501120&#45;&gt;5207499920 -->
<g id="edge23" class="edge">
<title>5207501120&#45;&gt;5207499920</title>
<path fill="none" stroke="#a50026" d="M170.86,-127.26C184.47,-162.23 209.35,-225.4 213,-229.38 225.49,-243.01 239.13,-233.43 250,-248.38 279.39,-288.81 253.46,-311.57 268,-359.38 272.02,-372.61 277.98,-386.55 283.72,-398.61"/>
<polygon fill="#a50026" stroke="#a50026" points="280.44,-399.87 288,-407.3 286.72,-396.78 280.44,-399.87"/>
<g id="a_edge23&#45;label"><a xlink:title="Value(data=&#45;6.03e&#45;01, grad=&#45;4.36e&#45;02, label=w3)">
<text text-anchor="middle" x="231.5" y="-252.18" font-family="Times,serif" font-size="14.00">w_3_2</text>
</a>
</g>
</g>
<!-- 5207501120&#45;&gt;4679691904 -->
<g id="edge28" class="edge">
<title>5207501120&#45;&gt;4679691904</title>
<path fill="none" stroke="#d9ef8b" d="M192.45,-81.56C210.79,-70.78 233.68,-62.91 250,-76.38 266.24,-89.78 263.85,-148.75 268,-169.38 276.64,-212.32 287.03,-261.73 293.81,-293.7"/>
<polygon fill="#d9ef8b" stroke="#d9ef8b" points="290.32,-294.11 295.83,-303.16 297.17,-292.65 290.32,-294.11"/>
<g id="a_edge28&#45;label"><a xlink:title="Value(data=5.66e&#45;01, grad=&#45;6.46e&#45;03, label=w3)">
<text text-anchor="middle" x="231.5" y="-80.18" font-family="Times,serif" font-size="14.00">w_3_3</text>
</a>
</g>
</g>
<!-- 5207781184 -->
<g id="node12" class="node">
<title>5207781184</title>
<polygon fill="none" stroke="black" points="409,-304.38 409,-350.38 477,-350.38 477,-304.38 409,-304.38"/>
<text text-anchor="middle" x="443" y="-335.18" font-family="Times,serif" font-size="14.00">layer: 3</text>
<polyline fill="none" stroke="black" points="409,-327.38 477,-327.38"/>
<text text-anchor="middle" x="443" y="-312.18" font-family="Times,serif" font-size="14.00">neuron: 0</text>
</g>
<!-- 5207500976&#45;&gt;5207781184 -->
<g id="edge30" class="edge">
<title>5207500976&#45;&gt;5207781184</title>
<path fill="none" stroke="#f46d43" d="M320.05,-512.41C338.15,-487.78 367.37,-447.34 391,-411.38 401.99,-394.66 413.62,-375.62 422.99,-359.91"/>
<polygon fill="#f46d43" stroke="#f46d43" points="425.93,-361.8 428.02,-351.42 419.91,-358.24 425.93,-361.8"/>
<g id="a_edge30&#45;label"><a xlink:title="Value(data=&#45;3.66e&#45;01, grad=&#45;4.78e&#45;02, label=w0)">
<text text-anchor="middle" x="372.5" y="-467.18" font-family="Times,serif" font-size="14.00">w_0_0</text>
</a>
</g>
</g>
<!-- 5207501888&#45;&gt;5207781184 -->
<g id="edge31" class="edge">
<title>5207501888&#45;&gt;5207781184</title>
<path fill="none" stroke="#a50026" d="M319.77,-160.3C344.4,-193.97 390.46,-256.93 418.47,-295.21"/>
<polygon fill="#a50026" stroke="#a50026" points="415.55,-297.16 424.28,-303.16 421.2,-293.02 415.55,-297.16"/>
<g id="a_edge31&#45;label"><a xlink:title="Value(data=&#45;2.71e+00, grad=&#45;6.82e&#45;03, label=w1)">
<text text-anchor="middle" x="372.5" y="-259.18" font-family="Times,serif" font-size="14.00">w_1_0</text>
</a>
</g>
</g>
<!-- 5207499920&#45;&gt;5207781184 -->
<g id="edge32" class="edge">
<title>5207499920&#45;&gt;5207781184</title>
<path fill="none" stroke="#66bd63" d="M333.5,-408.56C353.78,-393.39 380.61,-373.31 402.51,-356.93"/>
<polygon fill="#66bd63" stroke="#66bd63" points="404.44,-359.85 410.36,-351.06 400.25,-354.25 404.44,-359.85"/>
<g id="a_edge32&#45;label"><a xlink:title="Value(data=1.67e+00, grad=4.93e&#45;02, label=w2)">
<text text-anchor="middle" x="372.5" y="-396.18" font-family="Times,serif" font-size="14.00">w_2_0</text>
</a>
</g>
</g>
<!-- 4679691904&#45;&gt;5207781184 -->
<g id="edge33" class="edge">
<title>4679691904&#45;&gt;5207781184</title>
<path fill="none" stroke="#66bd63" d="M335.94,-327.38C354.46,-327.38 377.83,-327.38 397.91,-327.38"/>
<polygon fill="#66bd63" stroke="#66bd63" points="397.78,-330.88 407.78,-327.38 397.78,-323.88 397.78,-330.88"/>
<g id="a_edge33&#45;label"><a xlink:title="Value(data=1.32e+00, grad=&#45;9.45e&#45;02, label=w3)">
<text text-anchor="middle" x="372.5" y="-331.18" font-family="Times,serif" font-size="14.00">w_3_0</text>
</a>
</g>
</g>
<!-- 4685351216 -->
<g id="node11" class="node">
<title>4685351216</title>
<polygon fill="none" stroke="black" points="275,-59.38 275,-95.38 329,-95.38 329,-59.38 275,-59.38"/>
<text text-anchor="middle" x="302" y="-73.68" font-family="Times,serif" font-size="14.00">bias</text>
</g>
<!-- 4685351216&#45;&gt;5207781184 -->
<g id="edge29" class="edge">
<title>4685351216&#45;&gt;5207781184</title>
<path fill="none" stroke="#a50026" d="M326.58,-95.08C329.9,-98.02 333.15,-101.17 336,-104.38 386.52,-161.47 418,-246.86 432.52,-293.68"/>
<polygon fill="#a50026" stroke="#a50026" points="429.09,-294.42 435.33,-302.98 435.79,-292.4 429.09,-294.42"/>
<g id="a_edge29&#45;label"><a xlink:title="Value(data=&#45;9.18e&#45;01, grad=5.36e&#45;03, label=b)">
<text text-anchor="middle" x="372.5" y="-193.18" font-family="Times,serif" font-size="14.00">b_0</text>
</a>
</g>
</g>
</g>
</svg>
