<?xml version="1.0" encoding="UTF-8" standalone="no"?>
<!DOCTYPE svg PUBLIC "-//W3C//DTD SVG 1.1//EN"
 "http://www.w3.org/Graphics/SVG/1.1/DTD/svg11.dtd">
<!-- Generated by graphviz version 7.1.0 (20230121.1956)
 -->
<!-- Pages: 1 -->
<svg width="485pt" height="744pt"
 viewBox="0.00 0.00 485.00 743.86" xmlns="http://www.w3.org/2000/svg" xmlns:xlink="http://www.w3.org/1999/xlink">
<g id="graph0" class="graph" transform="scale(1 1) rotate(0) translate(4 739.86)">
<polygon fill="white" stroke="none" points="-4,4 -4,-739.86 481,-739.86 481,4 -4,4"/>
<!-- 5207258096 -->
<g id="node1" class="node">
<title>5207258096</title>
<polygon fill="none" stroke="black" points="0,-319.01 0,-355.01 54,-355.01 54,-319.01 0,-319.01"/>
<text text-anchor="middle" x="27" y="-333.31" font-family="Times,serif" font-size="14.00">bias</text>
</g>
<!-- 5207500016 -->
<g id="node2" class="node">
<title>5207500016</title>
<polygon fill="none" stroke="black" points="127,-400.01 127,-446.01 195,-446.01 195,-400.01 127,-400.01"/>
<text text-anchor="middle" x="161" y="-430.81" font-family="Times,serif" font-size="14.00">layer: 1</text>
<polyline fill="none" stroke="black" points="127,-423.01 195,-423.01"/>
<text text-anchor="middle" x="161" y="-407.81" font-family="Times,serif" font-size="14.00">neuron: 0</text>
</g>
<!-- 5207258096&#45;&gt;5207500016 -->
<g id="edge1" class="edge">
<title>5207258096&#45;&gt;5207500016</title>
<path fill="none" stroke="#a6d96a" d="M39.2,-354.81C47.16,-366.21 58.75,-380.58 72,-390.01 85.27,-399.44 101.56,-406.54 116.51,-411.68"/>
<polygon fill="#a6d96a" stroke="#a6d96a" points="115.06,-414.89 125.65,-414.62 117.2,-408.23 115.06,-414.89"/>
<g id="a_edge1&#45;label"><a xlink:title="Value(data=7.29e&#45;01, grad=0.00e+00, label=b)">
<text text-anchor="middle" x="90.5" y="-411.81" font-family="Times,serif" font-size="14.00">b_0</text>
</a>
</g>
</g>
<!-- 5207502080 -->
<g id="node4" class="node">
<title>5207502080</title>
<polygon fill="none" stroke="black" points="127,-257.01 127,-303.01 195,-303.01 195,-257.01 127,-257.01"/>
<text text-anchor="middle" x="161" y="-287.81" font-family="Times,serif" font-size="14.00">layer: 1</text>
<polyline fill="none" stroke="black" points="127,-280.01 195,-280.01"/>
<text text-anchor="middle" x="161" y="-264.81" font-family="Times,serif" font-size="14.00">neuron: 1</text>
</g>
<!-- 5207258096&#45;&gt;5207502080 -->
<g id="edge3" class="edge">
<title>5207258096&#45;&gt;5207502080</title>
<path fill="none" stroke="#66bd63" d="M53.88,-323.61C59.79,-320.68 66.08,-317.66 72,-315.01 86.35,-308.58 102.26,-302.07 116.56,-296.44"/>
<polygon fill="#66bd63" stroke="#66bd63" points="117.67,-299.76 125.72,-292.87 115.13,-293.24 117.67,-299.76"/>
<g id="a_edge3&#45;label"><a xlink:title="Value(data=8.71e&#45;01, grad=0.00e+00, label=b)">
<text text-anchor="middle" x="90.5" y="-318.81" font-family="Times,serif" font-size="14.00">b_1</text>
</a>
</g>
</g>
<!-- 5207502368 -->
<g id="node5" class="node">
<title>5207502368</title>
<polygon fill="none" stroke="black" points="127,-331.01 127,-377.01 195,-377.01 195,-331.01 127,-331.01"/>
<text text-anchor="middle" x="161" y="-361.81" font-family="Times,serif" font-size="14.00">layer: 1</text>
<polyline fill="none" stroke="black" points="127,-354.01 195,-354.01"/>
<text text-anchor="middle" x="161" y="-338.81" font-family="Times,serif" font-size="14.00">neuron: 2</text>
</g>
<!-- 5207258096&#45;&gt;5207502368 -->
<g id="edge5" class="edge">
<title>5207258096&#45;&gt;5207502368</title>
<path fill="none" stroke="#a50026" d="M47.62,-354.69C54.78,-360.05 63.27,-365.24 72,-368.01 86.08,-372.47 101.9,-371.65 116.2,-368.88"/>
<polygon fill="#a50026" stroke="#a50026" points="116.86,-372.32 125.81,-366.64 115.27,-365.5 116.86,-372.32"/>
<g id="a_edge5&#45;label"><a xlink:title="Value(data=&#45;6.77e&#45;01, grad=0.00e+00, label=b)">
<text text-anchor="middle" x="90.5" y="-374.81" font-family="Times,serif" font-size="14.00">b_2</text>
</a>
</g>
</g>
<!-- 5207501120 -->
<g id="node6" class="node">
<title>5207501120</title>
<polygon fill="none" stroke="black" points="127,-174.01 127,-220.01 195,-220.01 195,-174.01 127,-174.01"/>
<text text-anchor="middle" x="161" y="-204.81" font-family="Times,serif" font-size="14.00">layer: 1</text>
<polyline fill="none" stroke="black" points="127,-197.01 195,-197.01"/>
<text text-anchor="middle" x="161" y="-181.81" font-family="Times,serif" font-size="14.00">neuron: 3</text>
</g>
<!-- 5207258096&#45;&gt;5207501120 -->
<g id="edge7" class="edge">
<title>5207258096&#45;&gt;5207501120</title>
<path fill="none" stroke="#f46d43" d="M36.01,-319.35C47.91,-293.22 69.18,-246.97 72,-244.01 84.45,-230.94 101.33,-220.73 116.99,-213.2"/>
<polygon fill="#f46d43" stroke="#f46d43" points="118,-216.59 125.66,-209.27 115.11,-210.21 118,-216.59"/>
<g id="a_edge7&#45;label"><a xlink:title="Value(data=&#45;3.87e&#45;01, grad=0.00e+00, label=b)">
<text text-anchor="middle" x="90.5" y="-247.81" font-family="Times,serif" font-size="14.00">b_3</text>
</a>
</g>
</g>
<!-- 5207500976 -->
<g id="node8" class="node">
<title>5207500976</title>
<polygon fill="none" stroke="black" points="268,-230.01 268,-276.01 336,-276.01 336,-230.01 268,-230.01"/>
<text text-anchor="middle" x="302" y="-260.81" font-family="Times,serif" font-size="14.00">layer: 2</text>
<polyline fill="none" stroke="black" points="268,-253.01 336,-253.01"/>
<text text-anchor="middle" x="302" y="-237.81" font-family="Times,serif" font-size="14.00">neuron: 0</text>
</g>
<!-- 5207500016&#45;&gt;5207500976 -->
<g id="edge10" class="edge">
<title>5207500016&#45;&gt;5207500976</title>
<path fill="none" stroke="#fee08b" d="M186.53,-400.07C189.8,-396 192.79,-391.59 195,-387.01 217.28,-340.8 177.96,-310.47 213,-273.01 224.2,-261.04 240.94,-255.51 256.82,-253.16"/>
<polygon fill="#fee08b" stroke="#fee08b" points="257.06,-256.65 266.64,-252.12 256.32,-249.69 257.06,-256.65"/>
<g id="a_edge10&#45;label"><a xlink:title="Value(data=2.19e&#45;01, grad=0.00e+00, label=w0)">
<text text-anchor="middle" x="231.5" y="-276.81" font-family="Times,serif" font-size="14.00">w_0_0</text>
</a>
</g>
</g>
<!-- 5207501888 -->
<g id="node9" class="node">
<title>5207501888</title>
<polygon fill="none" stroke="black" points="268,-78.01 268,-124.01 336,-124.01 336,-78.01 268,-78.01"/>
<text text-anchor="middle" x="302" y="-108.81" font-family="Times,serif" font-size="14.00">layer: 2</text>
<polyline fill="none" stroke="black" points="268,-101.01 336,-101.01"/>
<text text-anchor="middle" x="302" y="-85.81" font-family="Times,serif" font-size="14.00">neuron: 1</text>
</g>
<!-- 5207500016&#45;&gt;5207501888 -->
<g id="edge15" class="edge">
<title>5207500016&#45;&gt;5207501888</title>
<path fill="none" stroke="#f46d43" d="M186.86,-400.22C190.09,-396.13 192.98,-391.67 195,-387.01 216.08,-338.34 184.22,-193.56 213,-149.01 223.4,-132.91 241.14,-121.77 257.98,-114.32"/>
<polygon fill="#f46d43" stroke="#f46d43" points="258.92,-117.71 266.87,-110.71 256.29,-111.22 258.92,-117.71"/>
<g id="a_edge15&#45;label"><a xlink:title="Value(data=&#45;2.79e&#45;01, grad=0.00e+00, label=w0)">
<text text-anchor="middle" x="231.5" y="-152.81" font-family="Times,serif" font-size="14.00">w_0_1</text>
</a>
</g>
</g>
<!-- 5207499920 -->
<g id="node10" class="node">
<title>5207499920</title>
<polygon fill="none" stroke="black" points="268,-401.01 268,-447.01 336,-447.01 336,-401.01 268,-401.01"/>
<text text-anchor="middle" x="302" y="-431.81" font-family="Times,serif" font-size="14.00">layer: 2</text>
<polyline fill="none" stroke="black" points="268,-424.01 336,-424.01"/>
<text text-anchor="middle" x="302" y="-408.81" font-family="Times,serif" font-size="14.00">neuron: 2</text>
</g>
<!-- 5207500016&#45;&gt;5207499920 -->
<g id="edge20" class="edge">
<title>5207500016&#45;&gt;5207499920</title>
<path fill="none" stroke="#66bd63" d="M194.81,-435.65C200.78,-437.46 207.01,-439.03 213,-440.01 229.23,-442.64 233.75,-442.5 250,-440.01 252.33,-439.65 254.7,-439.21 257.08,-438.7"/>
<polygon fill="#66bd63" stroke="#66bd63" points="257.84,-442.11 266.68,-436.28 256.13,-435.33 257.84,-442.11"/>
<g id="a_edge20&#45;label"><a xlink:title="Value(data=9.27e&#45;01, grad=0.00e+00, label=w0)">
<text text-anchor="middle" x="231.5" y="-444.81" font-family="Times,serif" font-size="14.00">w_0_2</text>
</a>
</g>
</g>
<!-- 4679691904 -->
<g id="node11" class="node">
<title>4679691904</title>
<polygon fill="none" stroke="black" points="268,-572.01 268,-618.01 336,-618.01 336,-572.01 268,-572.01"/>
<text text-anchor="middle" x="302" y="-602.81" font-family="Times,serif" font-size="14.00">layer: 2</text>
<polyline fill="none" stroke="black" points="268,-595.01 336,-595.01"/>
<text text-anchor="middle" x="302" y="-579.81" font-family="Times,serif" font-size="14.00">neuron: 3</text>
</g>
<!-- 5207500016&#45;&gt;4679691904 -->
<g id="edge25" class="edge">
<title>5207500016&#45;&gt;4679691904</title>
<path fill="none" stroke="#fee08b" d="M164.15,-445.85C169.27,-494.81 184.01,-607.29 213,-630.01 228.62,-642.24 249.06,-635.17 266.31,-624.27"/>
<polygon fill="#fee08b" stroke="#fee08b" points="268.03,-627.34 274.27,-618.78 264.05,-621.58 268.03,-627.34"/>
<g id="a_edge25&#45;label"><a xlink:title="Value(data=1.51e&#45;02, grad=0.00e+00, label=w0)">
<text text-anchor="middle" x="231.5" y="-639.81" font-family="Times,serif" font-size="14.00">w_0_3</text>
</a>
</g>
</g>
<!-- x_0 -->
<g id="node3" class="node">
<title>x_0</title>
<ellipse fill="none" stroke="black" cx="27" cy="-253.01" rx="27" ry="18"/>
<text text-anchor="middle" x="27" y="-249.31" font-family="Times,serif" font-size="14.00">x_0</text>
</g>
<!-- x_0&#45;&gt;5207500016 -->
<g id="edge2" class="edge">
<title>x_0&#45;&gt;5207500016</title>
<path fill="none" stroke="#a50026" d="M34.54,-270.51C41.62,-287.48 54.31,-313.09 72,-330.01 85.36,-342.78 96.14,-335.73 109,-349.01 122,-362.43 116.57,-371.5 127,-387.01 128.04,-388.55 129.15,-390.1 130.3,-391.64"/>
<polygon fill="#a50026" stroke="#a50026" points="127.3,-393.49 136.31,-399.05 132.73,-389.08 127.3,-393.49"/>
<g id="a_edge2&#45;label"><a xlink:title="Value(data=&#45;8.15e&#45;01, grad=0.00e+00, label=w0)">
<text text-anchor="middle" x="90.5" y="-352.81" font-family="Times,serif" font-size="14.00">w_0_0</text>
</a>
</g>
</g>
<!-- x_0&#45;&gt;5207502080 -->
<g id="edge4" class="edge">
<title>x_0&#45;&gt;5207502080</title>
<path fill="none" stroke="#a6d96a" d="M37.03,-235.97C44.56,-223.73 56.55,-208.17 72,-201.01 86.92,-194.09 94.57,-193.13 109,-201.01 121.98,-208.1 118.98,-216.57 127,-229.01 130.9,-235.06 135.07,-241.5 139.08,-247.71"/>
<polygon fill="#a6d96a" stroke="#a6d96a" points="136.01,-249.4 144.38,-255.9 141.88,-245.6 136.01,-249.4"/>
<g id="a_edge4&#45;label"><a xlink:title="Value(data=6.59e&#45;01, grad=0.00e+00, label=w0)">
<text text-anchor="middle" x="90.5" y="-204.81" font-family="Times,serif" font-size="14.00">w_0_1</text>
</a>
</g>
</g>
<!-- x_0&#45;&gt;5207502368 -->
<g id="edge6" class="edge">
<title>x_0&#45;&gt;5207502368</title>
<path fill="none" stroke="#66bd63" d="M53.66,-257.05C70.85,-260.84 93.15,-267.96 109,-281.01 121.3,-291.13 118.06,-298.82 127,-312.01 129.32,-315.43 131.84,-318.94 134.41,-322.39"/>
<polygon fill="#66bd63" stroke="#66bd63" points="131.47,-324.32 140.33,-330.13 137.03,-320.06 131.47,-324.32"/>
<g id="a_edge6&#45;label"><a xlink:title="Value(data=9.38e&#45;01, grad=0.00e+00, label=w0)">
<text text-anchor="middle" x="90.5" y="-284.81" font-family="Times,serif" font-size="14.00">w_0_2</text>
</a>
</g>
</g>
<!-- x_0&#45;&gt;5207501120 -->
<g id="edge8" class="edge">
<title>x_0&#45;&gt;5207501120</title>
<path fill="none" stroke="#fee08b" d="M32.68,-235.12C38.52,-216.84 50.47,-189.42 72,-177.01 85.54,-169.2 101.9,-170.52 116.82,-175.03"/>
<polygon fill="#fee08b" stroke="#fee08b" points="115.34,-178.22 125.94,-178.29 117.7,-171.63 115.34,-178.22"/>
<g id="a_edge8&#45;label"><a xlink:title="Value(data=3.13e&#45;01, grad=0.00e+00, label=w0)">
<text text-anchor="middle" x="90.5" y="-180.81" font-family="Times,serif" font-size="14.00">w_0_3</text>
</a>
</g>
</g>
<!-- 5207502080&#45;&gt;5207500976 -->
<g id="edge11" class="edge">
<title>5207502080&#45;&gt;5207500976</title>
<path fill="none" stroke="#fee08b" d="M177.25,-257.09C182.95,-248.38 189.38,-238.3 195,-229.01 203.44,-215.04 198.91,-205.24 213,-197.01 227.2,-188.7 234.96,-190.36 250,-197.01 261.79,-202.21 272.02,-211.64 280.17,-221.29"/>
<polygon fill="#fee08b" stroke="#fee08b" points="277.2,-223.18 286.12,-228.92 282.72,-218.88 277.2,-223.18"/>
<g id="a_edge11&#45;label"><a xlink:title="Value(data=3.13e&#45;01, grad=0.00e+00, label=w1)">
<text text-anchor="middle" x="231.5" y="-200.81" font-family="Times,serif" font-size="14.00">w_1_0</text>
</a>
</g>
</g>
<!-- 5207502080&#45;&gt;5207501888 -->
<g id="edge16" class="edge">
<title>5207502080&#45;&gt;5207501888</title>
<path fill="none" stroke="#d73027" d="M180.13,-257.11C185.84,-248.72 191.56,-238.86 195,-229.01 208.54,-190.22 182.57,-72.61 213,-45.01 232.69,-27.15 258.73,-48.18 277.36,-69.37"/>
<polygon fill="#d73027" stroke="#d73027" points="274.54,-71.45 283.64,-76.88 279.91,-66.96 274.54,-71.45"/>
<g id="a_edge16&#45;label"><a xlink:title="Value(data=&#45;4.57e&#45;01, grad=0.00e+00, label=w1)">
<text text-anchor="middle" x="231.5" y="-48.81" font-family="Times,serif" font-size="14.00">w_1_1</text>
</a>
</g>
</g>
<!-- 5207502080&#45;&gt;5207499920 -->
<g id="edge21" class="edge">
<title>5207502080&#45;&gt;5207499920</title>
<path fill="none" stroke="#a6d96a" d="M182.04,-302.59C186.63,-308.37 191.26,-314.73 195,-321.01 205.6,-338.81 198.93,-348.8 213,-364.01 225.55,-377.58 234.49,-372.94 250,-383.01 255.18,-386.37 260.46,-390.15 265.57,-394.03"/>
<polygon fill="#a6d96a" stroke="#a6d96a" points="263.28,-396.69 273.31,-400.1 267.6,-391.17 263.28,-396.69"/>
<g id="a_edge21&#45;label"><a xlink:title="Value(data=6.75e&#45;01, grad=0.00e+00, label=w1)">
<text text-anchor="middle" x="231.5" y="-386.81" font-family="Times,serif" font-size="14.00">w_1_2</text>
</a>
</g>
</g>
<!-- 5207502080&#45;&gt;4679691904 -->
<g id="edge26" class="edge">
<title>5207502080&#45;&gt;4679691904</title>
<path fill="none" stroke="#fee08b" d="M184.21,-302.74C188.49,-308.31 192.44,-314.55 195,-321.01 214.14,-369.28 183.42,-511.32 213,-554.01 214.53,-556.21 236.26,-566.34 257.74,-575.98"/>
<polygon fill="#fee08b" stroke="#fee08b" points="256.24,-579.15 266.79,-580.02 259.09,-572.75 256.24,-579.15"/>
<g id="a_edge26&#45;label"><a xlink:title="Value(data=2.12e&#45;01, grad=0.00e+00, label=w1)">
<text text-anchor="middle" x="231.5" y="-574.81" font-family="Times,serif" font-size="14.00">w_1_3</text>
</a>
</g>
</g>
<!-- 5207502368&#45;&gt;5207500976 -->
<g id="edge12" class="edge">
<title>5207502368&#45;&gt;5207500976</title>
<path fill="none" stroke="#d9ef8b" d="M182.79,-331.23C187.36,-325.3 191.79,-318.69 195,-312.01 210.22,-280.33 185.47,-256.85 213,-235.01 225.61,-225.01 242.35,-225.99 257.84,-230.73"/>
<polygon fill="#d9ef8b" stroke="#d9ef8b" points="256.29,-233.89 266.88,-234.01 258.67,-227.31 256.29,-233.89"/>
<g id="a_edge12&#45;label"><a xlink:title="Value(data=4.60e&#45;01, grad=0.00e+00, label=w2)">
<text text-anchor="middle" x="231.5" y="-238.81" font-family="Times,serif" font-size="14.00">w_2_0</text>
</a>
</g>
</g>
<!-- 5207502368&#45;&gt;5207501888 -->
<g id="edge17" class="edge">
<title>5207502368&#45;&gt;5207501888</title>
<path fill="none" stroke="#d73027" d="M183.86,-331.1C188.28,-325.28 192.37,-318.74 195,-312.01 213.56,-264.46 175.52,-117.66 213,-83.01 225,-71.91 241.93,-72.92 257.73,-77.98"/>
<polygon fill="#d73027" stroke="#d73027" points="256.41,-81.22 267.01,-81.49 258.9,-74.68 256.41,-81.22"/>
<g id="a_edge17&#45;label"><a xlink:title="Value(data=&#45;4.78e&#45;01, grad=0.00e+00, label=w2)">
<text text-anchor="middle" x="231.5" y="-86.81" font-family="Times,serif" font-size="14.00">w_2_1</text>
</a>
</g>
</g>
<!-- 5207502368&#45;&gt;5207499920 -->
<g id="edge22" class="edge">
<title>5207502368&#45;&gt;5207499920</title>
<path fill="none" stroke="#d73027" d="M181.39,-376.78C190.2,-385.83 201.26,-395.59 213,-402.01 226.55,-409.41 242.62,-414.37 257.3,-417.67"/>
<polygon fill="#d73027" stroke="#d73027" points="256.21,-421.02 266.7,-419.58 257.6,-414.16 256.21,-421.02"/>
<g id="a_edge22&#45;label"><a xlink:title="Value(data=&#45;5.53e&#45;01, grad=0.00e+00, label=w2)">
<text text-anchor="middle" x="231.5" y="-418.81" font-family="Times,serif" font-size="14.00">w_2_2</text>
</a>
</g>
</g>
<!-- 5207502368&#45;&gt;4679691904 -->
<g id="edge27" class="edge">
<title>5207502368&#45;&gt;4679691904</title>
<path fill="none" stroke="#66bd63" d="M186.15,-376.7C189.65,-381.11 192.81,-385.95 195,-391.01 212.83,-432.16 180.43,-561.18 213,-592.01 224.53,-602.91 241.17,-605.47 256.89,-604.65"/>
<polygon fill="#66bd63" stroke="#66bd63" points="256.98,-608.16 266.59,-603.68 256.29,-601.19 256.98,-608.16"/>
<g id="a_edge27&#45;label"><a xlink:title="Value(data=8.39e&#45;01, grad=0.00e+00, label=w2)">
<text text-anchor="middle" x="231.5" y="-607.81" font-family="Times,serif" font-size="14.00">w_2_3</text>
</a>
</g>
</g>
<!-- 5207501120&#45;&gt;5207500976 -->
<g id="edge13" class="edge">
<title>5207501120&#45;&gt;5207500976</title>
<path fill="none" stroke="#a6d96a" d="M194.75,-176.72C211.94,-168.82 232.92,-163.64 250,-173.01 268.18,-182.98 280.81,-202.48 288.96,-219.74"/>
<polygon fill="#a6d96a" stroke="#a6d96a" points="285.65,-220.92 292.85,-228.7 292.07,-218.13 285.65,-220.92"/>
<g id="a_edge13&#45;label"><a xlink:title="Value(data=7.67e&#45;01, grad=0.00e+00, label=w3)">
<text text-anchor="middle" x="231.5" y="-176.81" font-family="Times,serif" font-size="14.00">w_3_0</text>
</a>
</g>
</g>
<!-- 5207501120&#45;&gt;5207501888 -->
<g id="edge18" class="edge">
<title>5207501120&#45;&gt;5207501888</title>
<path fill="none" stroke="#f46d43" d="M164.67,-174.3C170.57,-128.44 186.37,-27.43 213,-7.01 226.05,3 235.87,1.4 250,-7.01 271.77,-19.97 284.83,-45.82 292.27,-67.14"/>
<polygon fill="#f46d43" stroke="#f46d43" points="288.93,-68.19 295.3,-76.65 295.6,-66.06 288.93,-68.19"/>
<g id="a_edge18&#45;label"><a xlink:title="Value(data=&#45;2.60e&#45;01, grad=0.00e+00, label=w3)">
<text text-anchor="middle" x="231.5" y="-10.81" font-family="Times,serif" font-size="14.00">w_3_1</text>
</a>
</g>
</g>
<!-- 5207501120&#45;&gt;5207499920 -->
<g id="edge23" class="edge">
<title>5207501120&#45;&gt;5207499920</title>
<path fill="none" stroke="#fee08b" d="M179.62,-219.92C185.22,-228.11 191,-237.63 195,-247.01 209.15,-280.12 190.92,-297.56 213,-326.01 224.34,-340.61 236.3,-332.6 250,-345.01 264.39,-358.04 276.42,-376.02 285.17,-391.53"/>
<polygon fill="#fee08b" stroke="#fee08b" points="281.89,-392.82 289.73,-399.96 288.05,-389.5 281.89,-392.82"/>
<g id="a_edge23&#45;label"><a xlink:title="Value(data=1.43e&#45;04, grad=0.00e+00, label=w3)">
<text text-anchor="middle" x="231.5" y="-348.81" font-family="Times,serif" font-size="14.00">w_3_2</text>
</a>
</g>
</g>
<!-- 5207501120&#45;&gt;4679691904 -->
<g id="edge28" class="edge">
<title>5207501120&#45;&gt;4679691904</title>
<path fill="none" stroke="#d9ef8b" d="M180.47,-219.6C186.15,-227.76 191.74,-237.35 195,-247.01 214.14,-303.78 180.09,-465.95 213,-516.01 223.16,-531.45 235.51,-523.52 250,-535.01 260.25,-543.14 269.97,-553.57 278.11,-563.45"/>
<polygon fill="#d9ef8b" stroke="#d9ef8b" points="275.23,-565.45 284.18,-571.11 280.71,-561.1 275.23,-565.45"/>
<g id="a_edge28&#45;label"><a xlink:title="Value(data=5.57e&#45;01, grad=0.00e+00, label=w3)">
<text text-anchor="middle" x="231.5" y="-538.81" font-family="Times,serif" font-size="14.00">w_3_3</text>
</a>
</g>
</g>
<!-- 4587379632 -->
<g id="node7" class="node">
<title>4587379632</title>
<polygon fill="none" stroke="black" points="134,-672.01 134,-708.01 188,-708.01 188,-672.01 134,-672.01"/>
<text text-anchor="middle" x="161" y="-686.31" font-family="Times,serif" font-size="14.00">bias</text>
</g>
<!-- 4587379632&#45;&gt;5207500976 -->
<g id="edge9" class="edge">
<title>4587379632&#45;&gt;5207500976</title>
<path fill="none" stroke="#d73027" d="M163.6,-672.06C167.42,-636.49 179.4,-555.44 213,-497.01 224.59,-476.85 238.58,-480.26 250,-460.01 252.15,-456.19 279.05,-344.66 292.89,-286.93"/>
<polygon fill="#d73027" stroke="#d73027" points="296.27,-287.83 295.2,-277.29 289.46,-286.2 296.27,-287.83"/>
<g id="a_edge9&#45;label"><a xlink:title="Value(data=&#45;5.30e&#45;01, grad=0.00e+00, label=b)">
<text text-anchor="middle" x="231.5" y="-500.81" font-family="Times,serif" font-size="14.00">b_0</text>
</a>
</g>
</g>
<!-- 4587379632&#45;&gt;5207501888 -->
<g id="edge14" class="edge">
<title>4587379632&#45;&gt;5207501888</title>
<path fill="none" stroke="#a50026" d="M164.65,-672.12C170.41,-632.97 184.43,-536.76 195,-456.01 199.33,-422.94 193.94,-334.38 213,-307.01 223.56,-291.84 238.41,-302.41 250,-288.01 269.6,-263.65 259.82,-250.18 268,-220.01 275.81,-191.2 284.88,-158.53 291.54,-134.72"/>
<polygon fill="#a50026" stroke="#a50026" points="294.86,-135.83 294.19,-125.26 288.12,-133.94 294.86,-135.83"/>
<g id="a_edge14&#45;label"><a xlink:title="Value(data=&#45;6.16e&#45;01, grad=0.00e+00, label=b)">
<text text-anchor="middle" x="231.5" y="-310.81" font-family="Times,serif" font-size="14.00">b_1</text>
</a>
</g>
</g>
<!-- 4587379632&#45;&gt;5207499920 -->
<g id="edge19" class="edge">
<title>4587379632&#45;&gt;5207499920</title>
<path fill="none" stroke="#f46d43" d="M187.88,-686.49C207.84,-682.38 234.56,-673.61 250,-655.01 276.61,-622.95 259.19,-603.73 268,-563.01 275.84,-526.79 285.77,-485.5 292.68,-457.39"/>
<polygon fill="#f46d43" stroke="#f46d43" points="295.99,-458.59 294.99,-448.04 289.19,-456.91 295.99,-458.59"/>
<g id="a_edge19&#45;label"><a xlink:title="Value(data=&#45;2.98e&#45;01, grad=0.00e+00, label=b)">
<text text-anchor="middle" x="231.5" y="-681.81" font-family="Times,serif" font-size="14.00">b_2</text>
</a>
</g>
</g>
<!-- 4587379632&#45;&gt;4679691904 -->
<g id="edge24" class="edge">
<title>4587379632&#45;&gt;4679691904</title>
<path fill="none" stroke="#a50026" d="M187.77,-703.78C206.39,-711.68 231.44,-717.91 250,-706.01 276.44,-689.06 289.36,-654.58 295.55,-628.51"/>
<polygon fill="#a50026" stroke="#a50026" points="298.9,-629.57 297.56,-619.06 292.05,-628.11 298.9,-629.57"/>
<g id="a_edge24&#45;label"><a xlink:title="Value(data=&#45;8.19e&#45;01, grad=0.00e+00, label=b)">
<text text-anchor="middle" x="231.5" y="-715.81" font-family="Times,serif" font-size="14.00">b_3</text>
</a>
</g>
</g>
<!-- 5207781184 -->
<g id="node12" class="node">
<title>5207781184</title>
<polygon fill="none" stroke="black" points="409,-401.01 409,-447.01 477,-447.01 477,-401.01 409,-401.01"/>
<text text-anchor="middle" x="443" y="-431.81" font-family="Times,serif" font-size="14.00">layer: 3</text>
<polyline fill="none" stroke="black" points="409,-424.01 477,-424.01"/>
<text text-anchor="middle" x="443" y="-408.81" font-family="Times,serif" font-size="14.00">neuron: 0</text>
</g>
<!-- 4587379632&#45;&gt;5207781184 -->
<g id="edge29" class="edge">
<title>4587379632&#45;&gt;5207781184</title>
<path fill="none" stroke="#d73027" d="M178.1,-707.74C187.33,-716.56 199.71,-726.33 213,-731.01 228.51,-736.47 235.1,-737.97 250,-731.01 361.69,-678.76 414.94,-526.34 433.74,-457.93"/>
<polygon fill="#d73027" stroke="#d73027" points="437.09,-458.96 436.27,-448.4 430.32,-457.17 437.09,-458.96"/>
<g id="a_edge29&#45;label"><a xlink:title="Value(data=&#45;5.86e&#45;01, grad=0.00e+00, label=b)">
<text text-anchor="middle" x="302" y="-723.81" font-family="Times,serif" font-size="14.00">b_0</text>
</a>
</g>
</g>
<!-- 5207500976&#45;&gt;5207781184 -->
<g id="edge30" class="edge">
<title>5207500976&#45;&gt;5207781184</title>
<path fill="none" stroke="#f46d43" d="M321.46,-275.71C345.86,-305.74 388.98,-358.78 416.49,-392.62"/>
<polygon fill="#f46d43" stroke="#f46d43" points="413.49,-394.48 422.51,-400.03 418.92,-390.06 413.49,-394.48"/>
<g id="a_edge30&#45;label"><a xlink:title="Value(data=&#45;2.93e&#45;01, grad=0.00e+00, label=w0)">
<text text-anchor="middle" x="372.5" y="-361.81" font-family="Times,serif" font-size="14.00">w_0_0</text>
</a>
</g>
</g>
<!-- 5207501888&#45;&gt;5207781184 -->
<g id="edge31" class="edge">
<title>5207501888&#45;&gt;5207781184</title>
<path fill="none" stroke="#a50026" d="M313.36,-123.9C330.01,-160.83 363.65,-235.9 391,-300.01 404.05,-330.59 418.42,-365.66 428.57,-390.68"/>
<polygon fill="#a50026" stroke="#a50026" points="425.21,-391.72 432.21,-399.67 431.7,-389.09 425.21,-391.72"/>
<g id="a_edge31&#45;label"><a xlink:title="Value(data=&#45;7.43e&#45;01, grad=0.00e+00, label=w1)">
<text text-anchor="middle" x="372.5" y="-303.81" font-family="Times,serif" font-size="14.00">w_1_0</text>
</a>
</g>
</g>
<!-- 5207499920&#45;&gt;5207781184 -->
<g id="edge32" class="edge">
<title>5207499920&#45;&gt;5207781184</title>
<path fill="none" stroke="#a6d96a" d="M335.94,-424.01C354.46,-424.01 377.83,-424.01 397.91,-424.01"/>
<polygon fill="#a6d96a" stroke="#a6d96a" points="397.78,-427.51 407.78,-424.01 397.78,-420.51 397.78,-427.51"/>
<g id="a_edge32&#45;label"><a xlink:title="Value(data=7.12e&#45;01, grad=0.00e+00, label=w2)">
<text text-anchor="middle" x="372.5" y="-427.81" font-family="Times,serif" font-size="14.00">w_2_0</text>
</a>
</g>
</g>
<!-- 4679691904&#45;&gt;5207781184 -->
<g id="edge33" class="edge">
<title>4679691904&#45;&gt;5207781184</title>
<path fill="none" stroke="#fee08b" d="M321.46,-572.3C345.86,-542.28 388.98,-489.23 416.49,-455.39"/>
<polygon fill="#fee08b" stroke="#fee08b" points="418.92,-457.95 422.51,-447.98 413.49,-453.53 418.92,-457.95"/>
<g id="a_edge33&#45;label"><a xlink:title="Value(data=3.85e&#45;01, grad=0.00e+00, label=w3)">
<text text-anchor="middle" x="372.5" y="-532.81" font-family="Times,serif" font-size="14.00">w_3_0</text>
</a>
</g>
</g>
</g>
</svg>
